G04 Generated by Ultiboard 14.1 *
%FSLAX34Y34*%
%MOMM*%

%ADD10C,0.0001*%
%ADD11C,0.8500*%
%ADD12C,0.8890*%
%ADD13C,0.9000*%
%ADD14C,0.9949*%
%ADD15C,0.8000*%
%ADD16C,1.2000*%
%ADD17C,3.0000*%


G04 ColorRGB 000000 for the following layer *
%LNDrill-Copper Top-Copper Bottom*%
%LPD*%
G54D11*
X327660Y426720D03*
X327660Y393700D03*
X243840Y269240D03*
X134620Y281940D03*
X350520Y269240D03*
X368300Y337820D03*
X251460Y289560D03*
X284480Y309880D03*
X284480Y259080D03*
X86360Y302260D03*
G54D12*
X325120Y238760D03*
X401320Y238760D03*
X0Y482600D03*
X0Y508000D03*
X0Y558800D03*
X0Y533400D03*
X0Y584200D03*
X126175Y570248D03*
X49975Y570248D03*
X126175Y547665D03*
X49975Y547665D03*
X126175Y525081D03*
X49975Y525081D03*
X126175Y502497D03*
X49975Y502497D03*
X126175Y479914D03*
X49975Y479914D03*
X126175Y457330D03*
X49975Y457330D03*
X711200Y401320D03*
X711200Y426720D03*
X711200Y477520D03*
X711200Y452120D03*
X711200Y502920D03*
X325120Y269240D03*
X401320Y269240D03*
X401320Y345440D03*
X325120Y320040D03*
X325120Y294640D03*
X401320Y320040D03*
X401320Y294640D03*
X325120Y345440D03*
X467360Y284480D03*
X543560Y284480D03*
X502920Y497840D03*
X502920Y421640D03*
X502920Y370840D03*
X502920Y396240D03*
X502920Y447040D03*
X502920Y472440D03*
X502920Y523240D03*
G54D13*
X248920Y579120D03*
X147320Y579120D03*
X248920Y553720D03*
X147320Y553720D03*
X248920Y528320D03*
X147320Y528320D03*
X248920Y502920D03*
X147320Y502920D03*
X248920Y477520D03*
X147320Y477520D03*
X248920Y452120D03*
X147320Y452120D03*
G54D14*
X0Y457200D03*
X711200Y375920D03*
G54D15*
X5580Y401820D03*
X56380Y401820D03*
X56380Y330700D03*
X5580Y330700D03*
X56380Y259580D03*
X5580Y259580D03*
X467957Y429677D03*
X442557Y429677D03*
X467957Y482916D03*
X442557Y482916D03*
X467957Y536154D03*
X442557Y536154D03*
X467957Y589392D03*
X442557Y589392D03*
X467957Y323201D03*
X442557Y323201D03*
X300618Y402017D03*
X376818Y579817D03*
X300618Y529017D03*
X300618Y554417D03*
X300618Y503617D03*
X300618Y452817D03*
X300618Y478217D03*
X300618Y427417D03*
X376818Y427417D03*
X376818Y503617D03*
X376818Y529017D03*
X376818Y554417D03*
X376818Y452817D03*
X376818Y478217D03*
X376818Y402017D03*
X300618Y579817D03*
X188657Y248022D03*
X87057Y324222D03*
X264857Y248022D03*
X214057Y324222D03*
X239457Y324222D03*
X188657Y324222D03*
X137857Y324222D03*
X163257Y324222D03*
X112457Y324222D03*
X112457Y248022D03*
X214057Y248022D03*
X239457Y248022D03*
X137857Y248022D03*
X163257Y248022D03*
X87057Y248022D03*
X264857Y324222D03*
X540116Y323201D03*
X565516Y323201D03*
X540116Y429677D03*
X565516Y429677D03*
X540116Y482916D03*
X565516Y482916D03*
X540116Y536154D03*
X565516Y536154D03*
X540116Y589392D03*
X565516Y589392D03*
X679822Y553023D03*
X679822Y426023D03*
X679822Y400623D03*
X679822Y451423D03*
X679822Y502223D03*
X679822Y476823D03*
X679822Y527623D03*
X603622Y375223D03*
X603622Y527623D03*
X603622Y451423D03*
X603622Y426023D03*
X603622Y400623D03*
X603622Y502223D03*
X603622Y476823D03*
X603622Y553023D03*
X679822Y375223D03*
X467957Y376439D03*
X442557Y376439D03*
X540116Y376439D03*
X565516Y376439D03*
G54D16*
X652780Y307340D03*
X627380Y307340D03*
G54D17*
X-35560Y599440D03*
X-35560Y203200D03*
X708660Y203200D03*
X708660Y599440D03*

M02*
