M48
METRIC,TZ
VER,1
FMAT,2
DETECT,ON
ATC,ON
T1C0.8500
T2C0.8890
T3C0.9000
T4C0.9949
T5C0.8000
T6C1.2000
T7C3.0000
%
T1
X327660Y426720
Y393700
X243840Y269240
X134620Y281940
X350520Y269240
X368300Y337820
X251460Y289560
X284480Y309880
Y259080
X86360Y302260
T2
X325120Y238760
X401320
X0Y482600
Y508000
Y558800
Y533400
Y584200
X126175Y570248
X49975
X126175Y547665
X49975
X126175Y525081
X49975
X126175Y502497
X49975
X126175Y479914
X49975
X126175Y457330
X49975
X711200Y401320
Y426720
Y477520
Y452120
Y502920
X325120Y269240
X401320
Y345440
X325120Y320040
Y294640
X401320Y320040
Y294640
X325120Y345440
X467360Y284480
X543560
X502920Y497840
Y421640
Y370840
Y396240
Y447040
Y472440
Y523240
T3
X248920Y579120
X147320
X248920Y553720
X147320
X248920Y528320
X147320
X248920Y502920
X147320
X248920Y477520
X147320
X248920Y452120
X147320
T4
X0Y457200
X711200Y375920
T5
X5580Y401820
X56380
Y330700
X5580
X56380Y259580
X5580
X467957Y429677
X442557
X467957Y482916
X442557
X467957Y536154
X442557
X467957Y589392
X442557
X467957Y323201
X442557
X300618Y402017
X376818Y579817
X300618Y529017
Y554417
Y503617
Y452817
Y478217
Y427417
X376818
Y503617
Y529017
Y554417
Y452817
Y478217
Y402017
X300618Y579817
X188657Y248022
X87057Y324222
X264857Y248022
X214057Y324222
X239457
X188657
X137857
X163257
X112457
Y248022
X214057
X239457
X137857
X163257
X87057
X264857Y324222
X540116Y323201
X565516
X540116Y429677
X565516
X540116Y482916
X565516
X540116Y536154
X565516
X540116Y589392
X565516
X679822Y553023
Y426023
Y400623
Y451423
Y502223
Y476823
Y527623
X603622Y375223
Y527623
Y451423
Y426023
Y400623
Y502223
Y476823
Y553023
X679822Y375223
X467957Y376439
X442557
X540116
X565516
T6
X652780Y307340
X627380
T7
X-35560Y599440
Y203200
X708660
Y599440
M30
