G04 Generated by Ultiboard 14.1 *
%FSLAX34Y34*%
%MOMM*%

%ADD10C,0.0001*%
%ADD11C,0.2032*%
%ADD12C,0.1500*%
%ADD13C,0.1000*%
%ADD14C,0.2540*%
%ADD15C,0.0556*%
%ADD16C,0.1270*%
%ADD17C,0.50000*%
%ADD18C,1.00000*%


G04 ColorRGB FFFF00 for the following layer *
%LNSilkscreen Top*%
%LPD*%
G54D10*
G54D11*
X346851Y217745D02*
X346851Y225304D01*
X352496Y225304D01*
X355318Y223792D01*
X355318Y223036D01*
X352496Y221524D01*
X346851Y221524D01*
X348262Y221524D02*
X355318Y217745D01*
X360962Y223792D02*
X363784Y225304D01*
X363784Y217745D01*
X359551Y217745D02*
X368018Y217745D01*
X352637Y230293D02*
X354753Y232410D01*
X371687Y232410D02*
X354753Y232410D01*
X371687Y245110D02*
X354753Y245110D01*
X352637Y247227D02*
X354753Y245110D01*
X344170Y238760D02*
X346287Y230293D01*
X352637Y230293D01*
X346287Y247227D02*
X352637Y247227D01*
X344170Y238760D02*
X346287Y247227D01*
X344170Y238760D02*
X337820Y238760D01*
X382270Y238760D02*
X380153Y230293D01*
X373803Y230293D02*
X371687Y232410D01*
X380153Y230293D02*
X373803Y230293D01*
X382270Y238760D02*
X388620Y238760D01*
X382270Y238760D02*
X380153Y247227D01*
X373803Y247227D01*
X371687Y245110D01*
X174440Y590620D02*
X174440Y567620D01*
X224440Y567620D02*
X224440Y590620D01*
X174440Y567620D02*
X224440Y567620D01*
X224440Y590620D02*
X174440Y590620D01*
X22044Y445911D02*
X23555Y448733D01*
X23555Y451556D01*
X22044Y454378D01*
X15996Y454378D01*
X17508Y460022D02*
X15996Y462844D01*
X23555Y462844D01*
X23555Y458611D02*
X23555Y467078D01*
X12700Y596900D02*
X12700Y444500D01*
X-12700Y565150D02*
X-12700Y469900D01*
X-12700Y444500D02*
X12700Y444500D01*
X-12700Y467783D02*
X-4233Y467783D01*
X-12700Y463550D02*
X-12700Y444500D01*
X-10583Y465667D02*
X-12700Y467783D01*
X-4233Y569383D02*
X-4241Y569567D01*
X-4265Y569751D01*
X-4305Y569931D01*
X-4361Y570107D01*
X-4432Y570278D01*
X-4517Y570441D01*
X-4616Y570597D01*
X-4729Y570744D01*
X-4853Y570880D01*
X-4989Y571004D01*
X-5136Y571117D01*
X-5292Y571216D01*
X-5455Y571301D01*
X-5626Y571372D01*
X-5802Y571428D01*
X-5982Y571468D01*
X-6166Y571492D01*
X-6350Y571500D01*
X-6534Y571492D01*
X-6718Y571468D01*
X-6898Y571428D01*
X-7074Y571372D01*
X-7245Y571301D01*
X-7408Y571216D01*
X-7564Y571117D01*
X-7711Y571004D01*
X-7847Y570880D01*
X-7971Y570744D01*
X-8084Y570597D01*
X-8183Y570441D01*
X-8268Y570278D01*
X-8339Y570107D01*
X-8395Y569931D01*
X-8435Y569751D01*
X-8459Y569567D01*
X-8467Y569383D01*
X-8467Y567267D02*
X-12700Y567267D01*
X-8467Y567267D02*
X-8467Y569383D01*
X-12700Y596900D02*
X12700Y596900D01*
X-4233Y567267D02*
X-4233Y569383D01*
X-12700Y596900D02*
X-12700Y573617D01*
X-12700Y571500D02*
X-12700Y567267D01*
X-11884Y401602D02*
X-13395Y404424D01*
X-13395Y407247D01*
X-11884Y410069D01*
X-7348Y410069D01*
X-5836Y407247D01*
X-5836Y404424D01*
X-7348Y401602D01*
X-7348Y395958D02*
X-5836Y393136D01*
X-13395Y393136D01*
X-13395Y397369D02*
X-13395Y388902D01*
X23360Y394200D02*
X23360Y409440D01*
X28440Y409440D02*
X28440Y394200D01*
X36060Y409440D02*
X36060Y394200D01*
X33520Y409440D02*
X33520Y394200D01*
X34790Y394200D02*
X34790Y409440D01*
X28440Y394200D02*
X23360Y394200D01*
X36060Y401820D02*
X41140Y401820D01*
X28440Y409440D02*
X23360Y409440D01*
X23360Y401820D02*
X18280Y401820D01*
X5580Y416637D02*
X14047Y416637D01*
X9813Y412403D02*
X9813Y420870D01*
X3513Y391276D02*
X4536Y388922D01*
X5761Y386667D01*
X7177Y384526D01*
X8775Y382518D01*
X10542Y380656D01*
X12464Y378955D01*
X14528Y377428D01*
X16716Y376087D01*
X19013Y374942D01*
X21401Y374001D01*
X23862Y373272D01*
X26377Y372761D01*
X28928Y372470D01*
X31493Y372403D01*
X34055Y372560D01*
X36594Y372939D01*
X39090Y373538D01*
X41524Y374353D01*
X43878Y375376D01*
X46133Y376601D01*
X48274Y378017D01*
X50282Y379615D01*
X52144Y381382D01*
X53845Y383304D01*
X55372Y385368D01*
X56713Y387556D01*
X57858Y389853D01*
X58259Y390798D01*
X30980Y376420D02*
X33194Y376517D01*
X35391Y376806D01*
X37554Y377285D01*
X39667Y377952D01*
X41715Y378800D01*
X43680Y379823D01*
X45549Y381014D01*
X47307Y382362D01*
X48941Y383859D01*
X50438Y385493D01*
X51786Y387251D01*
X52977Y389120D01*
X53612Y390289D01*
X58509Y410236D02*
X57671Y412604D01*
X56629Y414889D01*
X55392Y417075D01*
X53970Y419144D01*
X52373Y421082D01*
X50612Y422873D01*
X48703Y424504D01*
X46658Y425963D01*
X44495Y427237D01*
X42228Y428318D01*
X39876Y429198D01*
X37456Y429869D01*
X34986Y430327D01*
X32487Y430567D01*
X29975Y430589D01*
X27472Y430392D01*
X24995Y429978D01*
X22564Y429349D01*
X20196Y428511D01*
X17911Y427469D01*
X15725Y426232D01*
X13656Y424810D01*
X12094Y423546D01*
X30980Y427220D02*
X28766Y427123D01*
X26569Y426834D01*
X24406Y426355D01*
X22293Y425688D01*
X20245Y424840D01*
X18280Y423817D01*
X16411Y422626D01*
X14653Y421278D01*
X13019Y419781D01*
X174440Y565220D02*
X174440Y542220D01*
X224440Y542220D02*
X224440Y565220D01*
X174440Y542220D02*
X224440Y542220D01*
X224440Y565220D02*
X174440Y565220D01*
X69166Y567436D02*
X69166Y574996D01*
X74811Y574996D01*
X77633Y573484D01*
X77633Y572728D01*
X74811Y571216D01*
X69166Y571216D01*
X70577Y571216D02*
X77633Y567436D01*
X83277Y573484D02*
X86099Y574996D01*
X86099Y567436D01*
X81866Y567436D02*
X90333Y567436D01*
X95977Y574240D02*
X97388Y574996D01*
X100211Y574996D01*
X103033Y573484D01*
X103033Y571972D01*
X101622Y571216D01*
X103033Y570460D01*
X103033Y568948D01*
X100211Y567436D01*
X97388Y567436D01*
X95977Y568192D01*
X97388Y571216D02*
X101622Y571216D01*
X98658Y578715D02*
X96542Y576598D01*
X79608Y576598D02*
X96542Y576598D01*
X79608Y563898D02*
X96542Y563898D01*
X98658Y561782D02*
X96542Y563898D01*
X107125Y570248D02*
X105008Y578715D01*
X98658Y578715D01*
X105008Y561782D02*
X98658Y561782D01*
X107125Y570248D02*
X105008Y561782D01*
X107125Y570248D02*
X113475Y570248D01*
X69025Y570248D02*
X71142Y578715D01*
X77492Y578715D02*
X79608Y576598D01*
X71142Y578715D02*
X77492Y578715D01*
X69025Y570248D02*
X62675Y570248D01*
X69025Y570248D02*
X71142Y561782D01*
X77492Y561782D01*
X79608Y563898D01*
X69166Y544852D02*
X69166Y552412D01*
X74811Y552412D01*
X77633Y550900D01*
X77633Y550144D01*
X74811Y548632D01*
X69166Y548632D01*
X70577Y548632D02*
X77633Y544852D01*
X83277Y550900D02*
X86099Y552412D01*
X86099Y544852D01*
X81866Y544852D02*
X90333Y544852D01*
X94566Y550900D02*
X97388Y552412D01*
X100211Y552412D01*
X103033Y550900D01*
X103033Y550144D01*
X94566Y544852D01*
X103033Y544852D01*
X103033Y545608D01*
X98658Y556131D02*
X96542Y554015D01*
X79608Y554015D02*
X96542Y554015D01*
X79608Y541315D02*
X96542Y541315D01*
X98658Y539198D02*
X96542Y541315D01*
X107125Y547665D02*
X105008Y556131D01*
X98658Y556131D01*
X105008Y539198D02*
X98658Y539198D01*
X107125Y547665D02*
X105008Y539198D01*
X107125Y547665D02*
X113475Y547665D01*
X69025Y547665D02*
X71142Y556131D01*
X77492Y556131D02*
X79608Y554015D01*
X71142Y556131D02*
X77492Y556131D01*
X69025Y547665D02*
X62675Y547665D01*
X69025Y547665D02*
X71142Y539198D01*
X77492Y539198D01*
X79608Y541315D01*
X174440Y539820D02*
X174440Y516820D01*
X224440Y516820D02*
X224440Y539820D01*
X174440Y516820D02*
X224440Y516820D01*
X224440Y539820D02*
X174440Y539820D01*
X72531Y522545D02*
X72531Y530104D01*
X78176Y530104D01*
X80998Y528592D01*
X80998Y527836D01*
X78176Y526324D01*
X72531Y526324D01*
X73942Y526324D02*
X80998Y522545D01*
X86642Y528592D02*
X89464Y530104D01*
X89464Y522545D01*
X85231Y522545D02*
X93698Y522545D01*
X99342Y528592D02*
X102164Y530104D01*
X102164Y522545D01*
X97931Y522545D02*
X106398Y522545D01*
X98658Y533548D02*
X96542Y531431D01*
X79608Y531431D02*
X96542Y531431D01*
X79608Y518731D02*
X96542Y518731D01*
X98658Y516614D02*
X96542Y518731D01*
X107125Y525081D02*
X105008Y533548D01*
X98658Y533548D01*
X105008Y516614D02*
X98658Y516614D01*
X107125Y525081D02*
X105008Y516614D01*
X107125Y525081D02*
X113475Y525081D01*
X69025Y525081D02*
X71142Y533548D01*
X77492Y533548D02*
X79608Y531431D01*
X71142Y533548D02*
X77492Y533548D01*
X69025Y525081D02*
X62675Y525081D01*
X69025Y525081D02*
X71142Y516614D01*
X77492Y516614D01*
X79608Y518731D01*
X174440Y514420D02*
X174440Y491420D01*
X224440Y491420D02*
X224440Y514420D01*
X174440Y491420D02*
X224440Y491420D01*
X224440Y514420D02*
X174440Y514420D01*
X69166Y499685D02*
X69166Y507245D01*
X74811Y507245D01*
X77633Y505733D01*
X77633Y504977D01*
X74811Y503465D01*
X69166Y503465D01*
X70577Y503465D02*
X77633Y499685D01*
X83277Y505733D02*
X86099Y507245D01*
X86099Y499685D01*
X81866Y499685D02*
X90333Y499685D01*
X94566Y505733D02*
X97388Y507245D01*
X100211Y507245D01*
X103033Y505733D01*
X103033Y501197D01*
X100211Y499685D01*
X97388Y499685D01*
X94566Y501197D01*
X94566Y505733D01*
X103033Y505733D02*
X94566Y501197D01*
X98658Y510964D02*
X96542Y508847D01*
X79608Y508847D02*
X96542Y508847D01*
X79608Y496147D02*
X96542Y496147D01*
X98658Y494031D02*
X96542Y496147D01*
X107125Y502497D02*
X105008Y510964D01*
X98658Y510964D01*
X105008Y494031D02*
X98658Y494031D01*
X107125Y502497D02*
X105008Y494031D01*
X107125Y502497D02*
X113475Y502497D01*
X69025Y502497D02*
X71142Y510964D01*
X77492Y510964D02*
X79608Y508847D01*
X71142Y510964D02*
X77492Y510964D01*
X69025Y502497D02*
X62675Y502497D01*
X69025Y502497D02*
X71142Y494031D01*
X77492Y494031D01*
X79608Y496147D01*
X174440Y489020D02*
X174440Y466020D01*
X224440Y466020D02*
X224440Y489020D01*
X174440Y466020D02*
X224440Y466020D01*
X224440Y489020D02*
X174440Y489020D01*
X76786Y477101D02*
X76786Y484661D01*
X82431Y484661D01*
X85253Y483149D01*
X85253Y482393D01*
X82431Y480881D01*
X76786Y480881D01*
X78197Y480881D02*
X85253Y477101D01*
X89486Y478613D02*
X92308Y477101D01*
X95131Y477101D01*
X97953Y478613D01*
X97953Y481637D01*
X97953Y483149D01*
X95131Y484661D01*
X92308Y484661D01*
X89486Y483149D01*
X89486Y481637D01*
X92308Y480125D01*
X95131Y480125D01*
X97953Y481637D01*
X98658Y488380D02*
X96542Y486264D01*
X79608Y486264D02*
X96542Y486264D01*
X79608Y473564D02*
X96542Y473564D01*
X98658Y471447D02*
X96542Y473564D01*
X107125Y479914D02*
X105008Y488380D01*
X98658Y488380D01*
X105008Y471447D02*
X98658Y471447D01*
X107125Y479914D02*
X105008Y471447D01*
X107125Y479914D02*
X113475Y479914D01*
X69025Y479914D02*
X71142Y488380D01*
X77492Y488380D02*
X79608Y486264D01*
X71142Y488380D02*
X77492Y488380D01*
X69025Y479914D02*
X62675Y479914D01*
X69025Y479914D02*
X71142Y471447D01*
X77492Y471447D01*
X79608Y473564D01*
X174440Y463620D02*
X174440Y440620D01*
X224440Y440620D02*
X224440Y463620D01*
X174440Y440620D02*
X224440Y440620D01*
X224440Y463620D02*
X174440Y463620D01*
X76786Y454518D02*
X76786Y462077D01*
X82431Y462077D01*
X85253Y460565D01*
X85253Y459810D01*
X82431Y458298D01*
X76786Y458298D01*
X78197Y458298D02*
X85253Y454518D01*
X93719Y454518D02*
X93719Y458298D01*
X97953Y460565D01*
X97953Y462077D01*
X89486Y462077D01*
X89486Y460565D01*
X98658Y465797D02*
X96542Y463680D01*
X79608Y463680D02*
X96542Y463680D01*
X79608Y450980D02*
X96542Y450980D01*
X98658Y448863D02*
X96542Y450980D01*
X107125Y457330D02*
X105008Y465797D01*
X98658Y465797D01*
X105008Y448863D02*
X98658Y448863D01*
X107125Y457330D02*
X105008Y448863D01*
X107125Y457330D02*
X113475Y457330D01*
X69025Y457330D02*
X71142Y465797D01*
X77492Y465797D02*
X79608Y463680D01*
X71142Y465797D02*
X77492Y465797D01*
X69025Y457330D02*
X62675Y457330D01*
X69025Y457330D02*
X71142Y448863D01*
X77492Y448863D01*
X79608Y450980D01*
X-11384Y332252D02*
X-12895Y335074D01*
X-12895Y337897D01*
X-11384Y340719D01*
X-6848Y340719D01*
X-5336Y337897D01*
X-5336Y335074D01*
X-6848Y332252D01*
X-6848Y328019D02*
X-5336Y325197D01*
X-5336Y322374D01*
X-6848Y319552D01*
X-7604Y319552D01*
X-12895Y328019D01*
X-12895Y319552D01*
X-12140Y319552D01*
X23360Y323080D02*
X23360Y338320D01*
X28440Y338320D02*
X28440Y323080D01*
X36060Y338320D02*
X36060Y323080D01*
X33520Y338320D02*
X33520Y323080D01*
X34790Y323080D02*
X34790Y338320D01*
X28440Y323080D02*
X23360Y323080D01*
X36060Y330700D02*
X41140Y330700D01*
X28440Y338320D02*
X23360Y338320D01*
X23360Y330700D02*
X18280Y330700D01*
X5580Y345517D02*
X14047Y345517D01*
X9813Y341283D02*
X9813Y349750D01*
X3513Y320156D02*
X4536Y317802D01*
X5761Y315547D01*
X7177Y313406D01*
X8775Y311398D01*
X10542Y309536D01*
X12464Y307835D01*
X14528Y306308D01*
X16716Y304967D01*
X19013Y303822D01*
X21401Y302881D01*
X23862Y302152D01*
X26377Y301641D01*
X28928Y301350D01*
X31493Y301283D01*
X34055Y301440D01*
X36594Y301819D01*
X39090Y302418D01*
X41524Y303233D01*
X43878Y304256D01*
X46133Y305481D01*
X48274Y306897D01*
X50282Y308495D01*
X52144Y310262D01*
X53845Y312184D01*
X55372Y314248D01*
X56713Y316436D01*
X57858Y318733D01*
X58259Y319678D01*
X30980Y305300D02*
X33194Y305397D01*
X35391Y305686D01*
X37554Y306165D01*
X39667Y306832D01*
X41715Y307680D01*
X43680Y308703D01*
X45549Y309894D01*
X47307Y311242D01*
X48941Y312739D01*
X50438Y314373D01*
X51786Y316131D01*
X52977Y318000D01*
X53612Y319169D01*
X58509Y339116D02*
X57671Y341484D01*
X56629Y343769D01*
X55392Y345955D01*
X53970Y348024D01*
X52373Y349962D01*
X50612Y351753D01*
X48703Y353384D01*
X46658Y354843D01*
X44495Y356117D01*
X42228Y357198D01*
X39876Y358078D01*
X37456Y358749D01*
X34986Y359207D01*
X32487Y359447D01*
X29975Y359469D01*
X27472Y359272D01*
X24995Y358858D01*
X22564Y358229D01*
X20196Y357391D01*
X17911Y356349D01*
X15725Y355112D01*
X13656Y353690D01*
X12094Y352426D01*
X30980Y356100D02*
X28766Y356003D01*
X26569Y355714D01*
X24406Y355235D01*
X22293Y354568D01*
X20245Y353720D01*
X18280Y352697D01*
X16411Y351506D01*
X14653Y350158D01*
X13019Y348661D01*
X-11384Y261132D02*
X-12895Y263954D01*
X-12895Y266777D01*
X-11384Y269599D01*
X-6848Y269599D01*
X-5336Y266777D01*
X-5336Y263954D01*
X-6848Y261132D01*
X-6092Y255488D02*
X-5336Y254077D01*
X-5336Y251254D01*
X-6848Y248432D01*
X-8360Y248432D01*
X-9116Y249843D01*
X-9872Y248432D01*
X-11384Y248432D01*
X-12895Y251254D01*
X-12895Y254077D01*
X-12140Y255488D01*
X-9116Y254077D02*
X-9116Y249843D01*
X23360Y251960D02*
X23360Y267200D01*
X28440Y267200D02*
X28440Y251960D01*
X36060Y267200D02*
X36060Y251960D01*
X33520Y267200D02*
X33520Y251960D01*
X34790Y251960D02*
X34790Y267200D01*
X28440Y251960D02*
X23360Y251960D01*
X36060Y259580D02*
X41140Y259580D01*
X28440Y267200D02*
X23360Y267200D01*
X23360Y259580D02*
X18280Y259580D01*
X5580Y274397D02*
X14047Y274397D01*
X9813Y270163D02*
X9813Y278630D01*
X3513Y249036D02*
X4536Y246682D01*
X5761Y244427D01*
X7177Y242286D01*
X8775Y240278D01*
X10542Y238416D01*
X12464Y236715D01*
X14528Y235188D01*
X16716Y233847D01*
X19013Y232702D01*
X21401Y231761D01*
X23862Y231032D01*
X26377Y230521D01*
X28928Y230230D01*
X31493Y230163D01*
X34055Y230320D01*
X36594Y230699D01*
X39090Y231298D01*
X41524Y232113D01*
X43878Y233136D01*
X46133Y234361D01*
X48274Y235777D01*
X50282Y237375D01*
X52144Y239142D01*
X53845Y241064D01*
X55372Y243128D01*
X56713Y245316D01*
X57858Y247613D01*
X58259Y248558D01*
X30980Y234180D02*
X33194Y234277D01*
X35391Y234566D01*
X37554Y235045D01*
X39667Y235712D01*
X41715Y236560D01*
X43680Y237583D01*
X45549Y238774D01*
X47307Y240122D01*
X48941Y241619D01*
X50438Y243253D01*
X51786Y245011D01*
X52977Y246880D01*
X53612Y248049D01*
X58509Y267996D02*
X57671Y270364D01*
X56629Y272649D01*
X55392Y274835D01*
X53970Y276904D01*
X52373Y278842D01*
X50612Y280633D01*
X48703Y282264D01*
X46658Y283723D01*
X44495Y284997D01*
X42228Y286078D01*
X39876Y286958D01*
X37456Y287629D01*
X34986Y288087D01*
X32487Y288327D01*
X29975Y288349D01*
X27472Y288152D01*
X24995Y287738D01*
X22564Y287109D01*
X20196Y286271D01*
X17911Y285229D01*
X15725Y283992D01*
X13656Y282570D01*
X12094Y281306D01*
X30980Y284980D02*
X28766Y284883D01*
X26569Y284594D01*
X24406Y284115D01*
X22293Y283448D01*
X20245Y282600D01*
X18280Y281577D01*
X16411Y280386D01*
X14653Y279038D01*
X13019Y277541D01*
X733244Y364631D02*
X734755Y367453D01*
X734755Y370276D01*
X733244Y373098D01*
X727196Y373098D01*
X728708Y377331D02*
X727196Y380153D01*
X727196Y382976D01*
X728708Y385798D01*
X729464Y385798D01*
X734755Y377331D01*
X734755Y385798D01*
X734000Y385798D01*
X723900Y515620D02*
X723900Y363220D01*
X698500Y483870D02*
X698500Y388620D01*
X698500Y363220D02*
X723900Y363220D01*
X698500Y386503D02*
X706967Y386503D01*
X698500Y382270D02*
X698500Y363220D01*
X700617Y384387D02*
X698500Y386503D01*
X706967Y488103D02*
X706959Y488287D01*
X706935Y488471D01*
X706895Y488651D01*
X706839Y488827D01*
X706768Y488998D01*
X706683Y489161D01*
X706584Y489317D01*
X706471Y489464D01*
X706347Y489600D01*
X706211Y489724D01*
X706064Y489837D01*
X705908Y489936D01*
X705745Y490021D01*
X705574Y490092D01*
X705398Y490148D01*
X705218Y490188D01*
X705034Y490212D01*
X704850Y490220D01*
X704666Y490212D01*
X704482Y490188D01*
X704302Y490148D01*
X704126Y490092D01*
X703955Y490021D01*
X703792Y489936D01*
X703636Y489837D01*
X703489Y489724D01*
X703353Y489600D01*
X703229Y489464D01*
X703116Y489317D01*
X703017Y489161D01*
X702932Y488998D01*
X702861Y488827D01*
X702805Y488651D01*
X702765Y488471D01*
X702741Y488287D01*
X702733Y488103D01*
X702733Y485987D02*
X698500Y485987D01*
X702733Y485987D02*
X702733Y488103D01*
X698500Y515620D02*
X723900Y515620D01*
X706967Y485987D02*
X706967Y488103D01*
X698500Y515620D02*
X698500Y492337D01*
X698500Y490220D02*
X698500Y485987D01*
X356596Y377460D02*
X356596Y369460D01*
X358587Y367460D01*
X360578Y367460D01*
X362569Y369460D01*
X362569Y377460D01*
X365556Y375460D02*
X367547Y377460D01*
X369538Y377460D01*
X371529Y375460D01*
X371529Y374460D01*
X365556Y367460D01*
X371529Y367460D01*
X371529Y368460D01*
X390590Y252740D02*
X390590Y361940D01*
X335850Y361940D02*
X335850Y252740D01*
X390590Y361940D02*
X335850Y361940D01*
X335850Y252740D02*
X390590Y252740D01*
X443968Y465963D02*
X443968Y459915D01*
X446791Y458403D01*
X449613Y458403D01*
X452435Y459915D01*
X452435Y465963D01*
X462313Y458403D02*
X459491Y458403D01*
X456668Y459915D01*
X456668Y461427D01*
X458079Y462183D01*
X456668Y462939D01*
X456668Y464451D01*
X459491Y465963D01*
X462313Y465963D01*
X465135Y464451D01*
X465135Y462939D01*
X463724Y462183D01*
X465135Y461427D01*
X465135Y459915D01*
X462313Y458403D01*
X458079Y462183D02*
X463724Y462183D01*
X438353Y416939D02*
X439527Y415514D01*
X440822Y414197D01*
X442226Y412998D01*
X443729Y411925D01*
X445320Y410988D01*
X446987Y410193D01*
X448716Y409547D01*
X450496Y409053D01*
X452311Y408717D01*
X454149Y408540D01*
X455996Y408524D01*
X457837Y408668D01*
X459658Y408973D01*
X461446Y409436D01*
X463186Y410052D01*
X464867Y410818D01*
X466474Y411727D01*
X467996Y412773D01*
X469420Y413947D01*
X470738Y415242D01*
X471937Y416646D01*
X473009Y418149D01*
X473946Y419740D01*
X474741Y421407D01*
X475388Y423136D01*
X475881Y424916D01*
X476218Y426731D01*
X476395Y428570D01*
X476411Y430416D01*
X476266Y432257D01*
X475961Y434078D01*
X475499Y435866D01*
X474883Y437606D01*
X474117Y439287D01*
X473208Y440894D01*
X472162Y442416D01*
X470987Y443841D01*
X469693Y445158D01*
X468289Y446357D01*
X466785Y447429D01*
X465194Y448366D01*
X463528Y449161D01*
X461798Y449808D01*
X460019Y450301D01*
X458203Y450638D01*
X456365Y450815D01*
X454519Y450831D01*
X452678Y450686D01*
X450856Y450381D01*
X449069Y449919D01*
X447328Y449303D01*
X445648Y448537D01*
X444041Y447628D01*
X442519Y446582D01*
X441094Y445407D01*
X439777Y444113D01*
X439527Y443841D01*
X431974Y419094D02*
X431982Y418910D01*
X432006Y418727D01*
X432046Y418546D01*
X432101Y418370D01*
X432172Y418200D01*
X432257Y418036D01*
X432356Y417880D01*
X432469Y417734D01*
X432594Y417598D01*
X432730Y417473D01*
X432876Y417360D01*
X433032Y417261D01*
X433196Y417176D01*
X433366Y417105D01*
X433542Y417050D01*
X433723Y417010D01*
X433906Y416986D01*
X434090Y416978D01*
X434275Y416986D01*
X434458Y417010D01*
X434638Y417050D01*
X434814Y417105D01*
X434985Y417176D01*
X435149Y417261D01*
X435304Y417360D01*
X435451Y417473D01*
X435587Y417598D01*
X435712Y417734D01*
X435824Y417880D01*
X435923Y418036D01*
X436009Y418200D01*
X436079Y418370D01*
X436135Y418546D01*
X436175Y418727D01*
X436199Y418910D01*
X436207Y419094D01*
X436207Y419094D01*
X468039Y437978D02*
X467267Y439060D01*
X466403Y440071D01*
X465455Y441003D01*
X464429Y441848D01*
X463333Y442602D01*
X462176Y443256D01*
X460966Y443808D01*
X459713Y444251D01*
X458426Y444584D01*
X457115Y444804D01*
X455789Y444908D01*
X454460Y444896D01*
X453136Y444769D01*
X451829Y444527D01*
X450548Y444171D01*
X449302Y443706D01*
X448102Y443133D01*
X446957Y442459D01*
X445875Y441687D01*
X444864Y440823D01*
X443932Y439875D01*
X443086Y438849D01*
X442623Y438199D01*
X442476Y421377D02*
X443248Y420295D01*
X444111Y419284D01*
X445060Y418352D01*
X446086Y417506D01*
X447181Y416753D01*
X448338Y416098D01*
X449548Y415547D01*
X450802Y415103D01*
X452089Y414770D01*
X453400Y414551D01*
X454725Y414447D01*
X456055Y414458D01*
X457378Y414586D01*
X458685Y414828D01*
X459967Y415183D01*
X461212Y415649D01*
X462412Y416221D01*
X463558Y416896D01*
X464640Y417668D01*
X465651Y418531D01*
X466583Y419480D01*
X467428Y420506D01*
X467892Y421155D01*
X436207Y423327D02*
X436199Y423512D01*
X436175Y423695D01*
X436135Y423875D01*
X436079Y424051D01*
X436009Y424222D01*
X435923Y424386D01*
X435824Y424541D01*
X435712Y424688D01*
X435587Y424824D01*
X435451Y424949D01*
X435304Y425061D01*
X435149Y425160D01*
X434985Y425246D01*
X434814Y425316D01*
X434638Y425372D01*
X434458Y425412D01*
X434275Y425436D01*
X434090Y425444D01*
X433906Y425436D01*
X433723Y425412D01*
X433542Y425372D01*
X433366Y425316D01*
X433196Y425246D01*
X433032Y425160D01*
X432876Y425061D01*
X432730Y424949D01*
X432594Y424824D01*
X432469Y424688D01*
X432356Y424541D01*
X432257Y424386D01*
X432172Y424222D01*
X432101Y424051D01*
X432046Y423875D01*
X432006Y423695D01*
X431982Y423512D01*
X431974Y423327D01*
X438324Y421211D02*
X438324Y416977D01*
X431974Y419094D02*
X431974Y423327D01*
X438324Y438144D02*
X438324Y442377D01*
X443968Y519201D02*
X443968Y513154D01*
X446791Y511642D01*
X449613Y511642D01*
X452435Y513154D01*
X452435Y519201D01*
X460902Y511642D02*
X460902Y515422D01*
X465135Y517689D01*
X465135Y519201D01*
X456668Y519201D01*
X456668Y517689D01*
X438353Y470177D02*
X439527Y468752D01*
X440822Y467435D01*
X442226Y466236D01*
X443729Y465164D01*
X445320Y464227D01*
X446987Y463432D01*
X448716Y462785D01*
X450496Y462291D01*
X452311Y461955D01*
X454149Y461778D01*
X455996Y461762D01*
X457837Y461907D01*
X459658Y462212D01*
X461446Y462674D01*
X463186Y463290D01*
X464867Y464056D01*
X466474Y464965D01*
X467996Y466011D01*
X469420Y467186D01*
X470738Y468480D01*
X471937Y469884D01*
X473009Y471387D01*
X473946Y472978D01*
X474741Y474645D01*
X475388Y476375D01*
X475881Y478154D01*
X476218Y479970D01*
X476395Y481808D01*
X476411Y483654D01*
X476266Y485495D01*
X475961Y487316D01*
X475499Y489104D01*
X474883Y490845D01*
X474117Y492525D01*
X473208Y494132D01*
X472162Y495654D01*
X470987Y497079D01*
X469693Y498396D01*
X468289Y499595D01*
X466785Y500667D01*
X465194Y501605D01*
X463528Y502400D01*
X461798Y503046D01*
X460019Y503540D01*
X458203Y503876D01*
X456365Y504053D01*
X454519Y504069D01*
X452678Y503925D01*
X450856Y503620D01*
X449069Y503157D01*
X447328Y502541D01*
X445648Y501775D01*
X444041Y500866D01*
X442519Y499820D01*
X441094Y498646D01*
X439777Y497351D01*
X439527Y497079D01*
X431974Y472333D02*
X431982Y472148D01*
X432006Y471965D01*
X432046Y471785D01*
X432101Y471609D01*
X432172Y471438D01*
X432257Y471274D01*
X432356Y471119D01*
X432469Y470972D01*
X432594Y470836D01*
X432730Y470711D01*
X432876Y470599D01*
X433032Y470500D01*
X433196Y470414D01*
X433366Y470344D01*
X433542Y470288D01*
X433723Y470248D01*
X433906Y470224D01*
X434090Y470216D01*
X434275Y470224D01*
X434458Y470248D01*
X434638Y470288D01*
X434814Y470344D01*
X434985Y470414D01*
X435149Y470500D01*
X435304Y470599D01*
X435451Y470711D01*
X435587Y470836D01*
X435712Y470972D01*
X435824Y471119D01*
X435923Y471274D01*
X436009Y471438D01*
X436079Y471609D01*
X436135Y471785D01*
X436175Y471965D01*
X436199Y472148D01*
X436207Y472333D01*
X436207Y472333D01*
X468039Y491216D02*
X467267Y492298D01*
X466403Y493309D01*
X465455Y494241D01*
X464429Y495087D01*
X463333Y495840D01*
X462176Y496495D01*
X460966Y497046D01*
X459713Y497490D01*
X458426Y497823D01*
X457115Y498042D01*
X455789Y498146D01*
X454460Y498135D01*
X453136Y498007D01*
X451829Y497765D01*
X450548Y497410D01*
X449302Y496944D01*
X448102Y496372D01*
X446957Y495697D01*
X445875Y494925D01*
X444864Y494061D01*
X443932Y493113D01*
X443086Y492087D01*
X442623Y491438D01*
X442476Y474615D02*
X443248Y473533D01*
X444111Y472522D01*
X445060Y471590D01*
X446086Y470744D01*
X447181Y469991D01*
X448338Y469337D01*
X449548Y468785D01*
X450802Y468342D01*
X452089Y468009D01*
X453400Y467789D01*
X454725Y467685D01*
X456055Y467697D01*
X457378Y467824D01*
X458685Y468066D01*
X459967Y468422D01*
X461212Y468887D01*
X462412Y469460D01*
X463558Y470134D01*
X464640Y470906D01*
X465651Y471770D01*
X466583Y472718D01*
X467428Y473744D01*
X467892Y474394D01*
X436207Y476566D02*
X436199Y476750D01*
X436175Y476933D01*
X436135Y477113D01*
X436079Y477290D01*
X436009Y477460D01*
X435923Y477624D01*
X435824Y477780D01*
X435712Y477926D01*
X435587Y478062D01*
X435451Y478187D01*
X435304Y478300D01*
X435149Y478399D01*
X434985Y478484D01*
X434814Y478555D01*
X434638Y478610D01*
X434458Y478650D01*
X434275Y478674D01*
X434090Y478682D01*
X433906Y478674D01*
X433723Y478650D01*
X433542Y478610D01*
X433366Y478555D01*
X433196Y478484D01*
X433032Y478399D01*
X432876Y478299D01*
X432730Y478187D01*
X432594Y478062D01*
X432469Y477926D01*
X432356Y477780D01*
X432257Y477624D01*
X432172Y477460D01*
X432101Y477290D01*
X432046Y477113D01*
X432006Y476933D01*
X431982Y476750D01*
X431974Y476566D01*
X438324Y474449D02*
X438324Y470216D01*
X431974Y472332D02*
X431974Y476566D01*
X438324Y491382D02*
X438324Y495616D01*
X443968Y572440D02*
X443968Y566392D01*
X446791Y564880D01*
X449613Y564880D01*
X452435Y566392D01*
X452435Y572440D01*
X463724Y572440D02*
X459491Y572440D01*
X456668Y570928D01*
X456668Y567904D01*
X456668Y566392D01*
X459491Y564880D01*
X462313Y564880D01*
X465135Y566392D01*
X465135Y567904D01*
X462313Y569416D01*
X459491Y569416D01*
X456668Y567904D01*
X438353Y523416D02*
X439527Y521991D01*
X440822Y520674D01*
X442226Y519474D01*
X443729Y518402D01*
X445320Y517465D01*
X446987Y516670D01*
X448716Y516023D01*
X450496Y515530D01*
X452311Y515193D01*
X454149Y515016D01*
X455996Y515000D01*
X457837Y515145D01*
X459658Y515450D01*
X461446Y515912D01*
X463186Y516529D01*
X464867Y517294D01*
X466474Y518204D01*
X467996Y519250D01*
X469420Y520424D01*
X470738Y521718D01*
X471937Y523123D01*
X473009Y524626D01*
X473946Y526217D01*
X474741Y527884D01*
X475388Y529613D01*
X475881Y531393D01*
X476218Y533208D01*
X476395Y535046D01*
X476411Y536893D01*
X476266Y538734D01*
X475961Y540555D01*
X475499Y542343D01*
X474883Y544083D01*
X474117Y545763D01*
X473208Y547371D01*
X472162Y548892D01*
X470987Y550317D01*
X469693Y551634D01*
X468289Y552834D01*
X466785Y553906D01*
X465194Y554843D01*
X463528Y555638D01*
X461798Y556285D01*
X460019Y556778D01*
X458203Y557115D01*
X456365Y557292D01*
X454519Y557308D01*
X452678Y557163D01*
X450856Y556858D01*
X449069Y556396D01*
X447328Y555779D01*
X445648Y555014D01*
X444041Y554104D01*
X442519Y553058D01*
X441094Y551884D01*
X439777Y550590D01*
X439527Y550317D01*
X431974Y525571D02*
X431982Y525387D01*
X432006Y525203D01*
X432046Y525023D01*
X432101Y524847D01*
X432172Y524676D01*
X432257Y524513D01*
X432356Y524357D01*
X432469Y524210D01*
X432594Y524074D01*
X432730Y523950D01*
X432876Y523837D01*
X433032Y523738D01*
X433196Y523653D01*
X433366Y523582D01*
X433542Y523526D01*
X433723Y523486D01*
X433906Y523462D01*
X434090Y523454D01*
X434275Y523462D01*
X434458Y523486D01*
X434638Y523526D01*
X434814Y523582D01*
X434985Y523653D01*
X435149Y523738D01*
X435304Y523837D01*
X435451Y523950D01*
X435587Y524074D01*
X435712Y524210D01*
X435824Y524357D01*
X435923Y524513D01*
X436009Y524676D01*
X436079Y524847D01*
X436135Y525023D01*
X436175Y525203D01*
X436199Y525387D01*
X436207Y525571D01*
X436207Y525571D01*
X468039Y544454D02*
X467267Y545537D01*
X466403Y546548D01*
X465455Y547480D01*
X464429Y548325D01*
X463333Y549078D01*
X462176Y549733D01*
X460966Y550284D01*
X459713Y550728D01*
X458426Y551061D01*
X457115Y551280D01*
X455789Y551385D01*
X454460Y551373D01*
X453136Y551246D01*
X451829Y551003D01*
X450548Y550648D01*
X449302Y550182D01*
X448102Y549610D01*
X446957Y548935D01*
X445875Y548163D01*
X444864Y547300D01*
X443932Y546352D01*
X443086Y545326D01*
X442623Y544676D01*
X442476Y527854D02*
X443248Y526771D01*
X444111Y525760D01*
X445060Y524828D01*
X446086Y523983D01*
X447181Y523230D01*
X448338Y522575D01*
X449548Y522024D01*
X450802Y521580D01*
X452089Y521247D01*
X453400Y521028D01*
X454725Y520923D01*
X456055Y520935D01*
X457378Y521062D01*
X458685Y521305D01*
X459967Y521660D01*
X461212Y522126D01*
X462412Y522698D01*
X463558Y523373D01*
X464640Y524145D01*
X465651Y525008D01*
X466583Y525956D01*
X467428Y526982D01*
X467892Y527632D01*
X436207Y529804D02*
X436199Y529988D01*
X436175Y530172D01*
X436135Y530352D01*
X436079Y530528D01*
X436009Y530699D01*
X435923Y530862D01*
X435824Y531018D01*
X435712Y531165D01*
X435587Y531301D01*
X435451Y531425D01*
X435304Y531538D01*
X435149Y531637D01*
X434985Y531722D01*
X434814Y531793D01*
X434638Y531849D01*
X434458Y531889D01*
X434275Y531913D01*
X434090Y531921D01*
X433906Y531913D01*
X433723Y531889D01*
X433542Y531849D01*
X433366Y531793D01*
X433196Y531722D01*
X433032Y531637D01*
X432876Y531538D01*
X432730Y531425D01*
X432594Y531301D01*
X432469Y531165D01*
X432356Y531018D01*
X432257Y530862D01*
X432172Y530699D01*
X432101Y530528D01*
X432046Y530352D01*
X432006Y530172D01*
X431982Y529988D01*
X431974Y529804D01*
X438324Y527687D02*
X438324Y523454D01*
X431974Y525571D02*
X431974Y529804D01*
X438324Y544621D02*
X438324Y548854D01*
X443968Y625678D02*
X443968Y619630D01*
X446791Y618119D01*
X449613Y618119D01*
X452435Y619630D01*
X452435Y625678D01*
X465135Y625678D02*
X456668Y625678D01*
X456668Y622654D01*
X462313Y622654D01*
X465135Y621142D01*
X465135Y619630D01*
X462313Y618119D01*
X456668Y618119D01*
X438353Y576654D02*
X439527Y575229D01*
X440822Y573912D01*
X442226Y572713D01*
X443729Y571640D01*
X445320Y570703D01*
X446987Y569908D01*
X448716Y569262D01*
X450496Y568768D01*
X452311Y568432D01*
X454149Y568255D01*
X455996Y568239D01*
X457837Y568383D01*
X459658Y568688D01*
X461446Y569151D01*
X463186Y569767D01*
X464867Y570533D01*
X466474Y571442D01*
X467996Y572488D01*
X469420Y573662D01*
X470738Y574957D01*
X471937Y576361D01*
X473009Y577864D01*
X473946Y579455D01*
X474741Y581122D01*
X475388Y582852D01*
X475881Y584631D01*
X476218Y586447D01*
X476395Y588285D01*
X476411Y590131D01*
X476266Y591972D01*
X475961Y593793D01*
X475499Y595581D01*
X474883Y597322D01*
X474117Y599002D01*
X473208Y600609D01*
X472162Y602131D01*
X470987Y603556D01*
X469693Y604873D01*
X468289Y606072D01*
X466785Y607144D01*
X465194Y608081D01*
X463528Y608876D01*
X461798Y609523D01*
X460019Y610017D01*
X458203Y610353D01*
X456365Y610530D01*
X454519Y610546D01*
X452678Y610401D01*
X450856Y610096D01*
X449069Y609634D01*
X447328Y609018D01*
X445648Y608252D01*
X444041Y607343D01*
X442519Y606297D01*
X441094Y605122D01*
X439777Y603828D01*
X439527Y603556D01*
X438324Y580926D02*
X438324Y576692D01*
X431974Y578809D02*
X431974Y583042D01*
X431974Y578809D02*
X431982Y578625D01*
X432006Y578442D01*
X432046Y578262D01*
X432101Y578085D01*
X432172Y577915D01*
X432257Y577751D01*
X432356Y577595D01*
X432469Y577449D01*
X432594Y577313D01*
X432730Y577188D01*
X432876Y577075D01*
X433032Y576976D01*
X433196Y576891D01*
X433366Y576820D01*
X433542Y576765D01*
X433723Y576725D01*
X433906Y576701D01*
X434090Y576693D01*
X434275Y576701D01*
X434458Y576725D01*
X434638Y576765D01*
X434814Y576820D01*
X434985Y576891D01*
X435149Y576976D01*
X435304Y577075D01*
X435451Y577188D01*
X435587Y577313D01*
X435712Y577449D01*
X435824Y577595D01*
X435923Y577751D01*
X436009Y577915D01*
X436079Y578085D01*
X436135Y578262D01*
X436175Y578442D01*
X436199Y578625D01*
X436207Y578809D01*
X436207Y578809D01*
X438324Y597859D02*
X438324Y602092D01*
X468039Y597693D02*
X467267Y598775D01*
X466403Y599786D01*
X465455Y600718D01*
X464429Y601564D01*
X463333Y602317D01*
X462176Y602971D01*
X460966Y603523D01*
X459713Y603966D01*
X458426Y604299D01*
X457115Y604519D01*
X455789Y604623D01*
X454460Y604611D01*
X453136Y604484D01*
X451829Y604242D01*
X450548Y603886D01*
X449302Y603421D01*
X448102Y602848D01*
X446957Y602174D01*
X445875Y601402D01*
X444864Y600538D01*
X443932Y599590D01*
X443086Y598564D01*
X442623Y597914D01*
X442476Y581092D02*
X443248Y580010D01*
X444111Y578999D01*
X445060Y578067D01*
X446086Y577221D01*
X447181Y576468D01*
X448338Y575813D01*
X449548Y575262D01*
X450802Y574818D01*
X452089Y574485D01*
X453400Y574266D01*
X454725Y574162D01*
X456055Y574173D01*
X457378Y574301D01*
X458685Y574543D01*
X459967Y574898D01*
X461212Y575364D01*
X462412Y575936D01*
X463558Y576611D01*
X464640Y577383D01*
X465651Y578247D01*
X466583Y579195D01*
X467428Y580221D01*
X467892Y580870D01*
X436207Y583042D02*
X436199Y583227D01*
X436175Y583410D01*
X436135Y583590D01*
X436079Y583766D01*
X436009Y583937D01*
X435923Y584101D01*
X435824Y584256D01*
X435712Y584403D01*
X435587Y584539D01*
X435451Y584664D01*
X435304Y584776D01*
X435149Y584875D01*
X434985Y584961D01*
X434814Y585031D01*
X434638Y585087D01*
X434458Y585127D01*
X434275Y585151D01*
X434090Y585159D01*
X433906Y585151D01*
X433723Y585127D01*
X433542Y585087D01*
X433366Y585031D01*
X433196Y584961D01*
X433032Y584875D01*
X432876Y584776D01*
X432730Y584664D01*
X432594Y584539D01*
X432469Y584403D01*
X432356Y584256D01*
X432257Y584101D01*
X432172Y583937D01*
X432101Y583766D01*
X432046Y583590D01*
X432006Y583410D01*
X431982Y583227D01*
X431974Y583042D01*
X437618Y359486D02*
X437618Y353439D01*
X440441Y351927D01*
X443263Y351927D01*
X446085Y353439D01*
X446085Y359486D01*
X451729Y357974D02*
X454552Y359486D01*
X454552Y351927D01*
X450318Y351927D02*
X458785Y351927D01*
X463018Y357974D02*
X465841Y359486D01*
X468663Y359486D01*
X471485Y357974D01*
X471485Y353439D01*
X468663Y351927D01*
X465841Y351927D01*
X463018Y353439D01*
X463018Y357974D01*
X471485Y357974D02*
X463018Y353439D01*
X438353Y310462D02*
X439527Y309037D01*
X440822Y307720D01*
X442226Y306521D01*
X443729Y305449D01*
X445320Y304512D01*
X446987Y303717D01*
X448716Y303070D01*
X450496Y302576D01*
X452311Y302240D01*
X454149Y302063D01*
X455996Y302047D01*
X457837Y302192D01*
X459658Y302496D01*
X461446Y302959D01*
X463186Y303575D01*
X464867Y304341D01*
X466474Y305250D01*
X467996Y306296D01*
X469420Y307471D01*
X470738Y308765D01*
X471937Y310169D01*
X473009Y311672D01*
X473946Y313263D01*
X474741Y314930D01*
X475388Y316660D01*
X475881Y318439D01*
X476218Y320255D01*
X476395Y322093D01*
X476411Y323939D01*
X476266Y325780D01*
X475961Y327601D01*
X475499Y329389D01*
X474883Y331130D01*
X474117Y332810D01*
X473208Y334417D01*
X472162Y335939D01*
X470987Y337364D01*
X469693Y338681D01*
X468289Y339880D01*
X466785Y340952D01*
X465194Y341890D01*
X463528Y342685D01*
X461798Y343331D01*
X460019Y343825D01*
X458203Y344161D01*
X456365Y344338D01*
X454519Y344354D01*
X452678Y344209D01*
X450856Y343905D01*
X449069Y343442D01*
X447328Y342826D01*
X445648Y342060D01*
X444041Y341151D01*
X442519Y340105D01*
X441094Y338930D01*
X439777Y337636D01*
X439527Y337364D01*
X431974Y312618D02*
X431982Y312433D01*
X432006Y312250D01*
X432046Y312070D01*
X432101Y311894D01*
X432172Y311723D01*
X432257Y311559D01*
X432356Y311403D01*
X432469Y311257D01*
X432594Y311121D01*
X432730Y310996D01*
X432876Y310884D01*
X433032Y310784D01*
X433196Y310699D01*
X433366Y310629D01*
X433542Y310573D01*
X433723Y310533D01*
X433906Y310509D01*
X434090Y310501D01*
X434275Y310509D01*
X434458Y310533D01*
X434638Y310573D01*
X434814Y310629D01*
X434985Y310699D01*
X435149Y310784D01*
X435304Y310884D01*
X435451Y310996D01*
X435587Y311121D01*
X435712Y311257D01*
X435824Y311403D01*
X435923Y311559D01*
X436009Y311723D01*
X436079Y311894D01*
X436135Y312070D01*
X436175Y312250D01*
X436199Y312433D01*
X436207Y312618D01*
X436207Y312618D01*
X468039Y331501D02*
X467267Y332583D01*
X466403Y333594D01*
X465455Y334526D01*
X464429Y335372D01*
X463333Y336125D01*
X462176Y336779D01*
X460966Y337331D01*
X459713Y337775D01*
X458426Y338108D01*
X457115Y338327D01*
X455789Y338431D01*
X454460Y338420D01*
X453136Y338292D01*
X451829Y338050D01*
X450548Y337695D01*
X449302Y337229D01*
X448102Y336657D01*
X446957Y335982D01*
X445875Y335210D01*
X444864Y334346D01*
X443932Y333398D01*
X443086Y332372D01*
X442623Y331723D01*
X442476Y314900D02*
X443248Y313818D01*
X444111Y312807D01*
X445060Y311875D01*
X446086Y311029D01*
X447181Y310276D01*
X448338Y309622D01*
X449548Y309070D01*
X450802Y308626D01*
X452089Y308294D01*
X453400Y308074D01*
X454725Y307970D01*
X456055Y307981D01*
X457378Y308109D01*
X458685Y308351D01*
X459967Y308706D01*
X461212Y309172D01*
X462412Y309744D01*
X463558Y310419D01*
X464640Y311191D01*
X465651Y312055D01*
X466583Y313003D01*
X467428Y314029D01*
X467892Y314678D01*
X436207Y316851D02*
X436199Y317035D01*
X436175Y317218D01*
X436135Y317398D01*
X436079Y317575D01*
X436009Y317745D01*
X435923Y317909D01*
X435824Y318065D01*
X435712Y318211D01*
X435587Y318347D01*
X435451Y318472D01*
X435304Y318584D01*
X435149Y318684D01*
X434985Y318769D01*
X434814Y318840D01*
X434638Y318895D01*
X434458Y318935D01*
X434275Y318959D01*
X434090Y318967D01*
X433906Y318959D01*
X433723Y318935D01*
X433542Y318895D01*
X433366Y318840D01*
X433196Y318769D01*
X433032Y318684D01*
X432876Y318584D01*
X432730Y318472D01*
X432594Y318347D01*
X432469Y318211D01*
X432356Y318065D01*
X432257Y317909D01*
X432172Y317745D01*
X432101Y317574D01*
X432046Y317398D01*
X432006Y317218D01*
X431982Y317035D01*
X431974Y316851D01*
X438324Y314734D02*
X438324Y310501D01*
X431974Y312617D02*
X431974Y316851D01*
X438324Y331667D02*
X438324Y335901D01*
X489091Y263465D02*
X489091Y271024D01*
X494736Y271024D01*
X497558Y269512D01*
X497558Y268756D01*
X494736Y267244D01*
X489091Y267244D01*
X490502Y267244D02*
X497558Y263465D01*
X507436Y263465D02*
X504613Y263465D01*
X501791Y264976D01*
X501791Y266488D01*
X503202Y267244D01*
X501791Y268000D01*
X501791Y269512D01*
X504613Y271024D01*
X507436Y271024D01*
X510258Y269512D01*
X510258Y268000D01*
X508847Y267244D01*
X510258Y266488D01*
X510258Y264976D01*
X507436Y263465D01*
X503202Y267244D02*
X508847Y267244D01*
X494877Y276013D02*
X496993Y278130D01*
X513927Y278130D02*
X496993Y278130D01*
X513927Y290830D02*
X496993Y290830D01*
X494877Y292947D02*
X496993Y290830D01*
X486410Y284480D02*
X488527Y276013D01*
X494877Y276013D01*
X488527Y292947D02*
X494877Y292947D01*
X486410Y284480D02*
X488527Y292947D01*
X486410Y284480D02*
X480060Y284480D01*
X524510Y284480D02*
X522393Y276013D01*
X516043Y276013D02*
X513927Y278130D01*
X522393Y276013D02*
X516043Y276013D01*
X524510Y284480D02*
X530860Y284480D01*
X524510Y284480D02*
X522393Y292947D01*
X516043Y292947D01*
X513927Y290830D01*
X289389Y497345D02*
X281389Y497345D01*
X279389Y495354D01*
X279389Y493363D01*
X281389Y491372D01*
X289389Y491372D01*
X287389Y487389D02*
X289389Y485398D01*
X279389Y485398D01*
X279389Y488385D02*
X279389Y482412D01*
X366068Y381917D02*
X366068Y599917D01*
X311368Y599917D02*
X311368Y381917D01*
X366068Y599917D02*
X311368Y599917D01*
X311368Y381917D02*
X366068Y381917D01*
X648829Y329384D02*
X646007Y330895D01*
X643184Y330895D01*
X640362Y329384D01*
X640362Y323336D01*
X634718Y324092D02*
X633307Y323336D01*
X630484Y323336D01*
X627662Y324848D01*
X627662Y326360D01*
X629073Y327116D01*
X627662Y327872D01*
X627662Y329384D01*
X630484Y330895D01*
X633307Y330895D01*
X634718Y330140D01*
X633307Y327116D02*
X629073Y327116D01*
X614680Y320040D02*
X665480Y320040D01*
X646430Y294640D02*
X665480Y294640D01*
X665480Y320040D01*
X614680Y294640D02*
X637963Y294640D01*
X642197Y294640D02*
X642197Y303107D01*
X644313Y296757D02*
X642197Y294640D01*
X614680Y294640D02*
X614680Y320040D01*
X182385Y335451D02*
X182385Y343451D01*
X180394Y345451D01*
X178403Y345451D01*
X176412Y343451D01*
X176412Y335451D01*
X172429Y336451D02*
X171434Y335451D01*
X169443Y335451D01*
X167452Y337451D01*
X167452Y339451D01*
X168447Y340451D01*
X167452Y341451D01*
X167452Y343451D01*
X169443Y345451D01*
X171434Y345451D01*
X172429Y344451D01*
X171434Y340451D02*
X168447Y340451D01*
X66957Y258772D02*
X284957Y258772D01*
X284957Y313472D02*
X66957Y313472D01*
X284957Y258772D02*
X284957Y313472D01*
X66957Y313472D02*
X66957Y258772D01*
X570455Y286915D02*
X570455Y292962D01*
X567633Y294474D01*
X564811Y294474D01*
X561989Y292962D01*
X561989Y286915D01*
X556344Y288427D02*
X553522Y286915D01*
X553522Y294474D01*
X557755Y294474D02*
X549289Y294474D01*
X543644Y288427D02*
X540822Y286915D01*
X540822Y294474D01*
X545055Y294474D02*
X536589Y294474D01*
X569721Y335939D02*
X568546Y337364D01*
X567252Y338681D01*
X565848Y339880D01*
X564345Y340952D01*
X562754Y341890D01*
X561087Y342685D01*
X559357Y343331D01*
X557578Y343825D01*
X555762Y344161D01*
X553924Y344338D01*
X552078Y344354D01*
X550237Y344209D01*
X548416Y343905D01*
X546628Y343442D01*
X544887Y342826D01*
X543207Y342060D01*
X541600Y341151D01*
X540078Y340105D01*
X538653Y338930D01*
X537336Y337636D01*
X536137Y336232D01*
X535065Y334729D01*
X534127Y333138D01*
X533332Y331471D01*
X532686Y329741D01*
X532192Y327962D01*
X531856Y326146D01*
X531679Y324308D01*
X531663Y322462D01*
X531808Y320621D01*
X532112Y318800D01*
X532575Y317012D01*
X533191Y315271D01*
X533957Y313591D01*
X534866Y311984D01*
X535912Y310462D01*
X537086Y309037D01*
X538381Y307720D01*
X539785Y306521D01*
X541288Y305449D01*
X542879Y304512D01*
X544546Y303717D01*
X546276Y303070D01*
X548055Y302576D01*
X549871Y302240D01*
X551709Y302063D01*
X553555Y302047D01*
X555396Y302192D01*
X557217Y302496D01*
X559005Y302959D01*
X560746Y303575D01*
X562426Y304341D01*
X564033Y305250D01*
X565555Y306296D01*
X566980Y307471D01*
X568297Y308765D01*
X568546Y309037D01*
X576100Y333784D02*
X576092Y333968D01*
X576068Y334151D01*
X576028Y334331D01*
X575972Y334507D01*
X575902Y334678D01*
X575816Y334842D01*
X575717Y334998D01*
X575605Y335144D01*
X575480Y335280D01*
X575344Y335405D01*
X575197Y335517D01*
X575042Y335617D01*
X574878Y335702D01*
X574707Y335773D01*
X574531Y335828D01*
X574351Y335868D01*
X574168Y335892D01*
X573983Y335900D01*
X573799Y335892D01*
X573616Y335868D01*
X573436Y335828D01*
X573259Y335773D01*
X573089Y335702D01*
X572925Y335617D01*
X572769Y335517D01*
X572623Y335405D01*
X572487Y335280D01*
X572362Y335144D01*
X572250Y334998D01*
X572150Y334842D01*
X572065Y334678D01*
X571994Y334507D01*
X571939Y334331D01*
X571899Y334151D01*
X571875Y333968D01*
X571867Y333784D01*
X571867Y333784D01*
X540035Y314900D02*
X540807Y313818D01*
X541671Y312807D01*
X542619Y311875D01*
X543645Y311029D01*
X544740Y310276D01*
X545898Y309622D01*
X547107Y309070D01*
X548361Y308626D01*
X549648Y308294D01*
X550959Y308074D01*
X552285Y307970D01*
X553614Y307981D01*
X554937Y308109D01*
X556245Y308351D01*
X557526Y308706D01*
X558771Y309172D01*
X559971Y309744D01*
X561117Y310419D01*
X562199Y311191D01*
X563210Y312055D01*
X564142Y313003D01*
X564988Y314029D01*
X565451Y314678D01*
X565598Y331501D02*
X564826Y332583D01*
X563962Y333594D01*
X563014Y334526D01*
X561988Y335372D01*
X560892Y336125D01*
X559735Y336779D01*
X558525Y337331D01*
X557272Y337775D01*
X555985Y338108D01*
X554674Y338327D01*
X553348Y338431D01*
X552019Y338420D01*
X550695Y338292D01*
X549388Y338050D01*
X548107Y337695D01*
X546862Y337229D01*
X545662Y336657D01*
X544516Y335982D01*
X543434Y335210D01*
X542423Y334346D01*
X541491Y333398D01*
X540645Y332372D01*
X540182Y331723D01*
X571867Y329551D02*
X571875Y329366D01*
X571899Y329183D01*
X571939Y329003D01*
X571994Y328827D01*
X572065Y328656D01*
X572150Y328492D01*
X572250Y328336D01*
X572362Y328190D01*
X572487Y328054D01*
X572623Y327929D01*
X572769Y327817D01*
X572925Y327717D01*
X573089Y327632D01*
X573259Y327562D01*
X573436Y327506D01*
X573616Y327466D01*
X573799Y327442D01*
X573983Y327434D01*
X574168Y327442D01*
X574351Y327466D01*
X574531Y327506D01*
X574707Y327562D01*
X574878Y327632D01*
X575042Y327717D01*
X575197Y327817D01*
X575344Y327929D01*
X575480Y328054D01*
X575605Y328190D01*
X575717Y328336D01*
X575816Y328492D01*
X575902Y328656D01*
X575972Y328827D01*
X576028Y329003D01*
X576068Y329183D01*
X576092Y329366D01*
X576100Y329551D01*
X569750Y331667D02*
X569750Y335901D01*
X576100Y333784D02*
X576100Y329551D01*
X569750Y314734D02*
X569750Y310501D01*
X570455Y393392D02*
X570455Y399439D01*
X567633Y400951D01*
X564811Y400951D01*
X561989Y399439D01*
X561989Y393392D01*
X556344Y394903D02*
X553522Y393392D01*
X553522Y400951D01*
X557755Y400951D02*
X549289Y400951D01*
X543644Y394148D02*
X542233Y393392D01*
X539411Y393392D01*
X536589Y394903D01*
X536589Y396415D01*
X538000Y397171D01*
X536589Y397927D01*
X536589Y399439D01*
X539411Y400951D01*
X542233Y400951D01*
X543644Y400195D01*
X542233Y397171D02*
X538000Y397171D01*
X569721Y442416D02*
X568546Y443841D01*
X567252Y445158D01*
X565848Y446357D01*
X564345Y447429D01*
X562754Y448366D01*
X561087Y449161D01*
X559357Y449808D01*
X557578Y450301D01*
X555762Y450638D01*
X553924Y450815D01*
X552078Y450831D01*
X550237Y450686D01*
X548416Y450381D01*
X546628Y449919D01*
X544887Y449303D01*
X543207Y448537D01*
X541600Y447628D01*
X540078Y446582D01*
X538653Y445407D01*
X537336Y444113D01*
X536137Y442709D01*
X535065Y441205D01*
X534127Y439614D01*
X533332Y437948D01*
X532686Y436218D01*
X532192Y434439D01*
X531856Y432623D01*
X531679Y430785D01*
X531663Y428939D01*
X531808Y427098D01*
X532112Y425276D01*
X532575Y423489D01*
X533191Y421748D01*
X533957Y420068D01*
X534866Y418461D01*
X535912Y416939D01*
X537086Y415514D01*
X538381Y414197D01*
X539785Y412998D01*
X541288Y411925D01*
X542879Y410988D01*
X544546Y410193D01*
X546276Y409547D01*
X548055Y409053D01*
X549871Y408717D01*
X551709Y408540D01*
X553555Y408524D01*
X555396Y408668D01*
X557217Y408973D01*
X559005Y409436D01*
X560746Y410052D01*
X562426Y410818D01*
X564033Y411727D01*
X565555Y412773D01*
X566980Y413947D01*
X568297Y415242D01*
X568546Y415514D01*
X576100Y440260D02*
X576092Y440445D01*
X576068Y440628D01*
X576028Y440808D01*
X575972Y440984D01*
X575902Y441155D01*
X575816Y441319D01*
X575717Y441474D01*
X575605Y441621D01*
X575480Y441757D01*
X575344Y441882D01*
X575197Y441994D01*
X575042Y442093D01*
X574878Y442179D01*
X574707Y442249D01*
X574531Y442305D01*
X574351Y442345D01*
X574168Y442369D01*
X573983Y442377D01*
X573799Y442369D01*
X573616Y442345D01*
X573436Y442305D01*
X573259Y442249D01*
X573089Y442179D01*
X572925Y442093D01*
X572769Y441994D01*
X572623Y441882D01*
X572487Y441757D01*
X572362Y441621D01*
X572250Y441474D01*
X572150Y441319D01*
X572065Y441155D01*
X571994Y440984D01*
X571939Y440808D01*
X571899Y440628D01*
X571875Y440445D01*
X571867Y440260D01*
X571867Y440260D01*
X540035Y421377D02*
X540807Y420295D01*
X541671Y419284D01*
X542619Y418352D01*
X543645Y417506D01*
X544740Y416753D01*
X545898Y416098D01*
X547107Y415547D01*
X548361Y415103D01*
X549648Y414770D01*
X550959Y414551D01*
X552285Y414447D01*
X553614Y414458D01*
X554937Y414586D01*
X556245Y414828D01*
X557526Y415183D01*
X558771Y415649D01*
X559971Y416221D01*
X561117Y416896D01*
X562199Y417668D01*
X563210Y418531D01*
X564142Y419480D01*
X564988Y420506D01*
X565451Y421155D01*
X565598Y437978D02*
X564826Y439060D01*
X563962Y440071D01*
X563014Y441003D01*
X561988Y441848D01*
X560892Y442602D01*
X559735Y443256D01*
X558525Y443808D01*
X557272Y444251D01*
X555985Y444584D01*
X554674Y444804D01*
X553348Y444908D01*
X552019Y444896D01*
X550695Y444769D01*
X549388Y444527D01*
X548107Y444171D01*
X546862Y443706D01*
X545662Y443133D01*
X544516Y442459D01*
X543434Y441687D01*
X542423Y440823D01*
X541491Y439875D01*
X540645Y438849D01*
X540182Y438199D01*
X571867Y436027D02*
X571875Y435843D01*
X571899Y435660D01*
X571939Y435479D01*
X571994Y435303D01*
X572065Y435133D01*
X572150Y434969D01*
X572250Y434813D01*
X572362Y434667D01*
X572487Y434531D01*
X572623Y434406D01*
X572769Y434293D01*
X572925Y434194D01*
X573089Y434109D01*
X573259Y434038D01*
X573436Y433983D01*
X573616Y433943D01*
X573799Y433919D01*
X573983Y433911D01*
X574168Y433919D01*
X574351Y433943D01*
X574531Y433983D01*
X574707Y434038D01*
X574878Y434109D01*
X575042Y434194D01*
X575197Y434293D01*
X575344Y434406D01*
X575480Y434531D01*
X575605Y434667D01*
X575717Y434813D01*
X575816Y434969D01*
X575902Y435133D01*
X575972Y435303D01*
X576028Y435479D01*
X576068Y435660D01*
X576092Y435843D01*
X576100Y436027D01*
X569750Y438144D02*
X569750Y442377D01*
X576100Y440261D02*
X576100Y436027D01*
X569750Y421211D02*
X569750Y416977D01*
X535177Y455701D02*
X535177Y449654D01*
X538000Y448142D01*
X540822Y448142D01*
X543644Y449654D01*
X543644Y455701D01*
X549289Y454189D02*
X552111Y455701D01*
X552111Y448142D01*
X547877Y448142D02*
X556344Y448142D01*
X569044Y451166D02*
X560577Y451166D01*
X567633Y455701D01*
X567633Y448142D01*
X566222Y448142D02*
X569044Y448142D01*
X569721Y495654D02*
X568546Y497079D01*
X567252Y498396D01*
X565848Y499595D01*
X564345Y500667D01*
X562754Y501605D01*
X561087Y502400D01*
X559357Y503046D01*
X557578Y503540D01*
X555762Y503876D01*
X553924Y504053D01*
X552078Y504069D01*
X550237Y503925D01*
X548416Y503620D01*
X546628Y503157D01*
X544887Y502541D01*
X543207Y501775D01*
X541600Y500866D01*
X540078Y499820D01*
X538653Y498646D01*
X537336Y497351D01*
X536137Y495947D01*
X535065Y494444D01*
X534127Y492853D01*
X533332Y491186D01*
X532686Y489456D01*
X532192Y487677D01*
X531856Y485861D01*
X531679Y484023D01*
X531663Y482177D01*
X531808Y480336D01*
X532112Y478515D01*
X532575Y476727D01*
X533191Y474986D01*
X533957Y473306D01*
X534866Y471699D01*
X535912Y470177D01*
X537086Y468752D01*
X538381Y467435D01*
X539785Y466236D01*
X541288Y465164D01*
X542879Y464227D01*
X544546Y463432D01*
X546276Y462785D01*
X548055Y462291D01*
X549871Y461955D01*
X551709Y461778D01*
X553555Y461762D01*
X555396Y461907D01*
X557217Y462212D01*
X559005Y462674D01*
X560746Y463290D01*
X562426Y464056D01*
X564033Y464965D01*
X565555Y466011D01*
X566980Y467186D01*
X568297Y468480D01*
X568546Y468752D01*
X576100Y493499D02*
X576092Y493683D01*
X576068Y493866D01*
X576028Y494046D01*
X575972Y494223D01*
X575902Y494393D01*
X575816Y494557D01*
X575717Y494713D01*
X575605Y494859D01*
X575480Y494995D01*
X575344Y495120D01*
X575197Y495232D01*
X575042Y495332D01*
X574878Y495417D01*
X574707Y495488D01*
X574531Y495543D01*
X574351Y495583D01*
X574168Y495607D01*
X573983Y495615D01*
X573799Y495607D01*
X573616Y495583D01*
X573436Y495543D01*
X573259Y495488D01*
X573089Y495417D01*
X572925Y495332D01*
X572769Y495233D01*
X572623Y495120D01*
X572487Y494995D01*
X572362Y494859D01*
X572250Y494713D01*
X572150Y494557D01*
X572065Y494393D01*
X571994Y494223D01*
X571939Y494046D01*
X571899Y493866D01*
X571875Y493683D01*
X571867Y493499D01*
X571867Y493499D01*
X540035Y474615D02*
X540807Y473533D01*
X541671Y472522D01*
X542619Y471590D01*
X543645Y470744D01*
X544740Y469991D01*
X545898Y469337D01*
X547107Y468785D01*
X548361Y468342D01*
X549648Y468009D01*
X550959Y467789D01*
X552285Y467685D01*
X553614Y467697D01*
X554937Y467824D01*
X556245Y468066D01*
X557526Y468422D01*
X558771Y468887D01*
X559971Y469460D01*
X561117Y470134D01*
X562199Y470906D01*
X563210Y471770D01*
X564142Y472718D01*
X564988Y473744D01*
X565451Y474394D01*
X565598Y491216D02*
X564826Y492298D01*
X563962Y493309D01*
X563014Y494241D01*
X561988Y495087D01*
X560892Y495840D01*
X559735Y496495D01*
X558525Y497046D01*
X557272Y497490D01*
X555985Y497823D01*
X554674Y498042D01*
X553348Y498146D01*
X552019Y498135D01*
X550695Y498007D01*
X549388Y497765D01*
X548107Y497410D01*
X546862Y496944D01*
X545662Y496372D01*
X544516Y495697D01*
X543434Y494925D01*
X542423Y494061D01*
X541491Y493113D01*
X540645Y492087D01*
X540182Y491438D01*
X571867Y489266D02*
X571875Y489081D01*
X571899Y488898D01*
X571939Y488718D01*
X571994Y488542D01*
X572065Y488371D01*
X572150Y488207D01*
X572250Y488052D01*
X572362Y487905D01*
X572487Y487769D01*
X572623Y487644D01*
X572769Y487532D01*
X572925Y487433D01*
X573089Y487347D01*
X573259Y487277D01*
X573436Y487221D01*
X573616Y487181D01*
X573799Y487157D01*
X573983Y487149D01*
X574168Y487157D01*
X574351Y487181D01*
X574531Y487221D01*
X574707Y487277D01*
X574878Y487347D01*
X575042Y487433D01*
X575197Y487532D01*
X575344Y487644D01*
X575480Y487769D01*
X575605Y487905D01*
X575717Y488052D01*
X575816Y488207D01*
X575902Y488371D01*
X575972Y488542D01*
X576028Y488718D01*
X576068Y488898D01*
X576092Y489081D01*
X576100Y489266D01*
X569750Y491382D02*
X569750Y495616D01*
X576100Y493499D02*
X576100Y489266D01*
X569750Y474449D02*
X569750Y470216D01*
X575535Y474468D02*
X575535Y480516D01*
X572713Y482028D01*
X569891Y482028D01*
X567069Y480516D01*
X567069Y474468D01*
X561424Y475980D02*
X558602Y474468D01*
X558602Y482028D01*
X562835Y482028D02*
X554369Y482028D01*
X541669Y474468D02*
X550135Y474468D01*
X550135Y477492D01*
X544491Y477492D01*
X541669Y479004D01*
X541669Y480516D01*
X544491Y482028D01*
X550135Y482028D01*
X569721Y548892D02*
X568546Y550317D01*
X567252Y551634D01*
X565848Y552834D01*
X564345Y553906D01*
X562754Y554843D01*
X561087Y555638D01*
X559357Y556285D01*
X557578Y556778D01*
X555762Y557115D01*
X553924Y557292D01*
X552078Y557308D01*
X550237Y557163D01*
X548416Y556858D01*
X546628Y556396D01*
X544887Y555779D01*
X543207Y555014D01*
X541600Y554104D01*
X540078Y553058D01*
X538653Y551884D01*
X537336Y550590D01*
X536137Y549185D01*
X535065Y547682D01*
X534127Y546091D01*
X533332Y544424D01*
X532686Y542695D01*
X532192Y540915D01*
X531856Y539100D01*
X531679Y537262D01*
X531663Y535415D01*
X531808Y533574D01*
X532112Y531753D01*
X532575Y529965D01*
X533191Y528225D01*
X533957Y526545D01*
X534866Y524937D01*
X535912Y523416D01*
X537086Y521991D01*
X538381Y520674D01*
X539785Y519474D01*
X541288Y518402D01*
X542879Y517465D01*
X544546Y516670D01*
X546276Y516023D01*
X548055Y515530D01*
X549871Y515193D01*
X551709Y515016D01*
X553555Y515000D01*
X555396Y515145D01*
X557217Y515450D01*
X559005Y515912D01*
X560746Y516529D01*
X562426Y517294D01*
X564033Y518204D01*
X565555Y519250D01*
X566980Y520424D01*
X568297Y521718D01*
X568546Y521991D01*
X576100Y546737D02*
X576092Y546921D01*
X576068Y547105D01*
X576028Y547285D01*
X575972Y547461D01*
X575902Y547632D01*
X575816Y547795D01*
X575717Y547951D01*
X575605Y548098D01*
X575480Y548234D01*
X575344Y548358D01*
X575197Y548471D01*
X575042Y548570D01*
X574878Y548655D01*
X574707Y548726D01*
X574531Y548782D01*
X574351Y548821D01*
X574168Y548846D01*
X573983Y548854D01*
X573799Y548846D01*
X573616Y548821D01*
X573436Y548782D01*
X573259Y548726D01*
X573089Y548655D01*
X572925Y548570D01*
X572769Y548471D01*
X572623Y548358D01*
X572487Y548234D01*
X572362Y548098D01*
X572250Y547951D01*
X572150Y547795D01*
X572065Y547632D01*
X571994Y547461D01*
X571939Y547285D01*
X571899Y547105D01*
X571875Y546921D01*
X571867Y546737D01*
X571867Y546737D01*
X540035Y527854D02*
X540807Y526771D01*
X541671Y525760D01*
X542619Y524828D01*
X543645Y523983D01*
X544740Y523230D01*
X545898Y522575D01*
X547107Y522024D01*
X548361Y521580D01*
X549648Y521247D01*
X550959Y521028D01*
X552285Y520923D01*
X553614Y520935D01*
X554937Y521062D01*
X556245Y521305D01*
X557526Y521660D01*
X558771Y522126D01*
X559971Y522698D01*
X561117Y523373D01*
X562199Y524145D01*
X563210Y525008D01*
X564142Y525956D01*
X564988Y526982D01*
X565451Y527632D01*
X565598Y544454D02*
X564826Y545537D01*
X563962Y546548D01*
X563014Y547480D01*
X561988Y548325D01*
X560892Y549078D01*
X559735Y549733D01*
X558525Y550284D01*
X557272Y550728D01*
X555985Y551061D01*
X554674Y551280D01*
X553348Y551385D01*
X552019Y551373D01*
X550695Y551246D01*
X549388Y551003D01*
X548107Y550648D01*
X546862Y550182D01*
X545662Y549610D01*
X544516Y548935D01*
X543434Y548163D01*
X542423Y547300D01*
X541491Y546352D01*
X540645Y545326D01*
X540182Y544676D01*
X571867Y542504D02*
X571875Y542320D01*
X571899Y542136D01*
X571939Y541956D01*
X571994Y541780D01*
X572065Y541609D01*
X572150Y541446D01*
X572250Y541290D01*
X572362Y541143D01*
X572487Y541007D01*
X572623Y540883D01*
X572769Y540770D01*
X572925Y540671D01*
X573089Y540586D01*
X573259Y540515D01*
X573436Y540459D01*
X573616Y540419D01*
X573799Y540395D01*
X573983Y540387D01*
X574168Y540395D01*
X574351Y540419D01*
X574531Y540459D01*
X574707Y540515D01*
X574878Y540586D01*
X575042Y540671D01*
X575197Y540770D01*
X575344Y540883D01*
X575480Y541007D01*
X575605Y541143D01*
X575717Y541290D01*
X575816Y541446D01*
X575902Y541609D01*
X575972Y541780D01*
X576028Y541956D01*
X576068Y542136D01*
X576092Y542320D01*
X576100Y542504D01*
X569750Y544621D02*
X569750Y548854D01*
X576100Y546737D02*
X576100Y542504D01*
X569750Y527687D02*
X569750Y523454D01*
X570455Y553107D02*
X570455Y559154D01*
X567633Y560666D01*
X564811Y560666D01*
X561989Y559154D01*
X561989Y553107D01*
X556344Y554619D02*
X553522Y553107D01*
X553522Y560666D01*
X557755Y560666D02*
X549289Y560666D01*
X538000Y553107D02*
X542233Y553107D01*
X545055Y554619D01*
X545055Y557642D01*
X545055Y559154D01*
X542233Y560666D01*
X539411Y560666D01*
X536589Y559154D01*
X536589Y557642D01*
X539411Y556130D01*
X542233Y556130D01*
X545055Y557642D01*
X569721Y602131D02*
X568546Y603556D01*
X567252Y604873D01*
X565848Y606072D01*
X564345Y607144D01*
X562754Y608081D01*
X561087Y608876D01*
X559357Y609523D01*
X557578Y610017D01*
X555762Y610353D01*
X553924Y610530D01*
X552078Y610546D01*
X550237Y610401D01*
X548416Y610096D01*
X546628Y609634D01*
X544887Y609018D01*
X543207Y608252D01*
X541600Y607343D01*
X540078Y606297D01*
X538653Y605122D01*
X537336Y603828D01*
X536137Y602424D01*
X535065Y600921D01*
X534127Y599329D01*
X533332Y597663D01*
X532686Y595933D01*
X532192Y594154D01*
X531856Y592338D01*
X531679Y590500D01*
X531663Y588654D01*
X531808Y586813D01*
X532112Y584992D01*
X532575Y583204D01*
X533191Y581463D01*
X533957Y579783D01*
X534866Y578176D01*
X535912Y576654D01*
X537086Y575229D01*
X538381Y573912D01*
X539785Y572713D01*
X541288Y571640D01*
X542879Y570703D01*
X544546Y569908D01*
X546276Y569262D01*
X548055Y568768D01*
X549871Y568432D01*
X551709Y568255D01*
X553555Y568239D01*
X555396Y568383D01*
X557217Y568688D01*
X559005Y569151D01*
X560746Y569767D01*
X562426Y570533D01*
X564033Y571442D01*
X565555Y572488D01*
X566980Y573662D01*
X568297Y574957D01*
X568546Y575229D01*
X576100Y599975D02*
X576092Y600160D01*
X576068Y600343D01*
X576028Y600523D01*
X575972Y600699D01*
X575902Y600870D01*
X575816Y601034D01*
X575717Y601189D01*
X575605Y601336D01*
X575480Y601472D01*
X575344Y601597D01*
X575197Y601709D01*
X575042Y601808D01*
X574878Y601894D01*
X574707Y601964D01*
X574531Y602020D01*
X574351Y602060D01*
X574168Y602084D01*
X573983Y602092D01*
X573799Y602084D01*
X573616Y602060D01*
X573436Y602020D01*
X573259Y601964D01*
X573089Y601894D01*
X572925Y601808D01*
X572769Y601709D01*
X572623Y601597D01*
X572487Y601472D01*
X572362Y601336D01*
X572250Y601189D01*
X572150Y601034D01*
X572065Y600870D01*
X571994Y600699D01*
X571939Y600523D01*
X571899Y600343D01*
X571875Y600160D01*
X571867Y599975D01*
X571867Y599975D01*
X540035Y581092D02*
X540807Y580010D01*
X541671Y578999D01*
X542619Y578067D01*
X543645Y577221D01*
X544740Y576468D01*
X545898Y575813D01*
X547107Y575262D01*
X548361Y574818D01*
X549648Y574485D01*
X550959Y574266D01*
X552285Y574162D01*
X553614Y574173D01*
X554937Y574301D01*
X556245Y574543D01*
X557526Y574898D01*
X558771Y575364D01*
X559971Y575936D01*
X561117Y576611D01*
X562199Y577383D01*
X563210Y578247D01*
X564142Y579195D01*
X564988Y580221D01*
X565451Y580870D01*
X565598Y597693D02*
X564826Y598775D01*
X563962Y599786D01*
X563014Y600718D01*
X561988Y601564D01*
X560892Y602317D01*
X559735Y602971D01*
X558525Y603523D01*
X557272Y603966D01*
X555985Y604299D01*
X554674Y604519D01*
X553348Y604623D01*
X552019Y604611D01*
X550695Y604484D01*
X549388Y604242D01*
X548107Y603886D01*
X546862Y603421D01*
X545662Y602848D01*
X544516Y602174D01*
X543434Y601402D01*
X542423Y600538D01*
X541491Y599590D01*
X540645Y598564D01*
X540182Y597914D01*
X571867Y595742D02*
X571875Y595558D01*
X571899Y595375D01*
X571939Y595195D01*
X571994Y595018D01*
X572065Y594848D01*
X572150Y594684D01*
X572250Y594528D01*
X572362Y594382D01*
X572487Y594246D01*
X572623Y594121D01*
X572769Y594008D01*
X572925Y593909D01*
X573089Y593824D01*
X573259Y593753D01*
X573436Y593698D01*
X573616Y593658D01*
X573799Y593634D01*
X573983Y593626D01*
X574168Y593634D01*
X574351Y593658D01*
X574531Y593698D01*
X574707Y593753D01*
X574878Y593824D01*
X575042Y593909D01*
X575197Y594008D01*
X575344Y594121D01*
X575480Y594246D01*
X575605Y594382D01*
X575717Y594528D01*
X575816Y594684D01*
X575902Y594848D01*
X575972Y595018D01*
X576028Y595195D01*
X576068Y595375D01*
X576092Y595558D01*
X576100Y595742D01*
X569750Y597859D02*
X569750Y602092D01*
X576100Y599976D02*
X576100Y595742D01*
X569750Y580926D02*
X569750Y576692D01*
X691051Y371335D02*
X699051Y371335D01*
X701051Y373326D01*
X701051Y375317D01*
X699051Y377308D01*
X691051Y377308D01*
X697051Y386268D02*
X697051Y380295D01*
X691051Y385273D01*
X701051Y385273D01*
X701051Y384277D02*
X701051Y386268D01*
X614372Y573123D02*
X614372Y355123D01*
X669072Y355123D02*
X669072Y573123D01*
X614372Y355123D02*
X669072Y355123D01*
X669072Y573123D02*
X614372Y573123D01*
X443968Y412725D02*
X443968Y406677D01*
X446791Y405165D01*
X449613Y405165D01*
X452435Y406677D01*
X452435Y412725D01*
X456668Y406677D02*
X459491Y405165D01*
X462313Y405165D01*
X465135Y406677D01*
X465135Y409701D01*
X465135Y411213D01*
X462313Y412725D01*
X459491Y412725D01*
X456668Y411213D01*
X456668Y409701D01*
X459491Y408189D01*
X462313Y408189D01*
X465135Y409701D01*
X438353Y363700D02*
X439527Y362276D01*
X440822Y360959D01*
X442226Y359759D01*
X443729Y358687D01*
X445320Y357750D01*
X446987Y356955D01*
X448716Y356308D01*
X450496Y355815D01*
X452311Y355478D01*
X454149Y355301D01*
X455996Y355285D01*
X457837Y355430D01*
X459658Y355735D01*
X461446Y356197D01*
X463186Y356814D01*
X464867Y357579D01*
X466474Y358489D01*
X467996Y359534D01*
X469420Y360709D01*
X470738Y362003D01*
X471937Y363407D01*
X473009Y364911D01*
X473946Y366502D01*
X474741Y368168D01*
X475388Y369898D01*
X475881Y371677D01*
X476218Y373493D01*
X476395Y375331D01*
X476411Y377178D01*
X476266Y379018D01*
X475961Y380840D01*
X475499Y382627D01*
X474883Y384368D01*
X474117Y386048D01*
X473208Y387656D01*
X472162Y389177D01*
X470987Y390602D01*
X469693Y391919D01*
X468289Y393118D01*
X466785Y394191D01*
X465194Y395128D01*
X463528Y395923D01*
X461798Y396570D01*
X460019Y397063D01*
X458203Y397400D01*
X456365Y397577D01*
X454519Y397593D01*
X452678Y397448D01*
X450856Y397143D01*
X449069Y396681D01*
X447328Y396064D01*
X445648Y395299D01*
X444041Y394389D01*
X442519Y393343D01*
X441094Y392169D01*
X439777Y390875D01*
X439527Y390602D01*
X431974Y365856D02*
X431982Y365671D01*
X432006Y365488D01*
X432046Y365308D01*
X432101Y365132D01*
X432172Y364961D01*
X432257Y364798D01*
X432356Y364642D01*
X432469Y364495D01*
X432594Y364359D01*
X432730Y364234D01*
X432876Y364122D01*
X433032Y364023D01*
X433196Y363938D01*
X433366Y363867D01*
X433542Y363811D01*
X433723Y363771D01*
X433906Y363747D01*
X434090Y363739D01*
X434275Y363747D01*
X434458Y363771D01*
X434638Y363811D01*
X434814Y363867D01*
X434985Y363938D01*
X435149Y364023D01*
X435304Y364122D01*
X435451Y364234D01*
X435587Y364359D01*
X435712Y364495D01*
X435824Y364642D01*
X435923Y364798D01*
X436009Y364961D01*
X436079Y365132D01*
X436135Y365308D01*
X436175Y365488D01*
X436199Y365671D01*
X436207Y365856D01*
X436207Y365856D01*
X468039Y384739D02*
X467267Y385822D01*
X466403Y386833D01*
X465455Y387764D01*
X464429Y388610D01*
X463333Y389363D01*
X462176Y390018D01*
X460966Y390569D01*
X459713Y391013D01*
X458426Y391346D01*
X457115Y391565D01*
X455789Y391670D01*
X454460Y391658D01*
X453136Y391531D01*
X451829Y391288D01*
X450548Y390933D01*
X449302Y390467D01*
X448102Y389895D01*
X446957Y389220D01*
X445875Y388448D01*
X444864Y387585D01*
X443932Y386636D01*
X443086Y385611D01*
X442623Y384961D01*
X442476Y368139D02*
X443248Y367056D01*
X444111Y366045D01*
X445060Y365113D01*
X446086Y364268D01*
X447181Y363515D01*
X448338Y362860D01*
X449548Y362309D01*
X450802Y361865D01*
X452089Y361532D01*
X453400Y361313D01*
X454725Y361208D01*
X456055Y361220D01*
X457378Y361347D01*
X458685Y361590D01*
X459967Y361945D01*
X461212Y362410D01*
X462412Y362983D01*
X463558Y363658D01*
X464640Y364430D01*
X465651Y365293D01*
X466583Y366241D01*
X467428Y367267D01*
X467892Y367917D01*
X436207Y370089D02*
X436199Y370273D01*
X436175Y370456D01*
X436135Y370637D01*
X436079Y370813D01*
X436009Y370983D01*
X435923Y371147D01*
X435824Y371303D01*
X435712Y371449D01*
X435587Y371586D01*
X435451Y371710D01*
X435304Y371823D01*
X435149Y371922D01*
X434985Y372007D01*
X434814Y372078D01*
X434638Y372133D01*
X434458Y372173D01*
X434275Y372198D01*
X434090Y372206D01*
X433906Y372198D01*
X433723Y372173D01*
X433542Y372133D01*
X433366Y372078D01*
X433196Y372007D01*
X433032Y371922D01*
X432876Y371823D01*
X432730Y371710D01*
X432594Y371586D01*
X432469Y371449D01*
X432356Y371303D01*
X432257Y371147D01*
X432172Y370983D01*
X432101Y370813D01*
X432046Y370637D01*
X432006Y370456D01*
X431982Y370273D01*
X431974Y370089D01*
X438324Y367972D02*
X438324Y363739D01*
X431974Y365856D02*
X431974Y370089D01*
X438324Y384906D02*
X438324Y389139D01*
X480544Y429401D02*
X472984Y429401D01*
X472984Y435046D01*
X474496Y437868D01*
X475252Y437868D01*
X476764Y435046D01*
X476764Y429401D01*
X476764Y430812D02*
X480544Y437868D01*
X474496Y443512D02*
X472984Y446334D01*
X480544Y446334D01*
X480544Y442101D02*
X480544Y450568D01*
X472984Y463268D02*
X472984Y454801D01*
X476008Y454801D01*
X476008Y460446D01*
X477520Y463268D01*
X479032Y463268D01*
X480544Y460446D01*
X480544Y454801D01*
X515620Y358140D02*
X515620Y535940D01*
X490220Y535940D02*
X490220Y358140D01*
X515620Y383540D02*
X490220Y383540D01*
X490220Y358140D02*
X515620Y358140D01*
X515620Y535940D02*
X490220Y535940D01*
X570455Y340153D02*
X570455Y346201D01*
X567633Y347713D01*
X564811Y347713D01*
X561989Y346201D01*
X561989Y340153D01*
X556344Y341665D02*
X553522Y340153D01*
X553522Y347713D01*
X557755Y347713D02*
X549289Y347713D01*
X545055Y341665D02*
X542233Y340153D01*
X539411Y340153D01*
X536589Y341665D01*
X536589Y342421D01*
X545055Y347713D01*
X536589Y347713D01*
X536589Y346957D01*
X569721Y389177D02*
X568546Y390602D01*
X567252Y391919D01*
X565848Y393118D01*
X564345Y394191D01*
X562754Y395128D01*
X561087Y395923D01*
X559357Y396570D01*
X557578Y397063D01*
X555762Y397400D01*
X553924Y397577D01*
X552078Y397593D01*
X550237Y397448D01*
X548416Y397143D01*
X546628Y396681D01*
X544887Y396064D01*
X543207Y395299D01*
X541600Y394389D01*
X540078Y393343D01*
X538653Y392169D01*
X537336Y390875D01*
X536137Y389470D01*
X535065Y387967D01*
X534127Y386376D01*
X533332Y384709D01*
X532686Y382980D01*
X532192Y381200D01*
X531856Y379385D01*
X531679Y377547D01*
X531663Y375700D01*
X531808Y373859D01*
X532112Y372038D01*
X532575Y370250D01*
X533191Y368510D01*
X533957Y366829D01*
X534866Y365222D01*
X535912Y363700D01*
X537086Y362276D01*
X538381Y360959D01*
X539785Y359759D01*
X541288Y358687D01*
X542879Y357750D01*
X544546Y356955D01*
X546276Y356308D01*
X548055Y355815D01*
X549871Y355478D01*
X551709Y355301D01*
X553555Y355285D01*
X555396Y355430D01*
X557217Y355735D01*
X559005Y356197D01*
X560746Y356814D01*
X562426Y357579D01*
X564033Y358489D01*
X565555Y359534D01*
X566980Y360709D01*
X568297Y362003D01*
X568546Y362276D01*
X576100Y387022D02*
X576092Y387206D01*
X576068Y387389D01*
X576028Y387570D01*
X575972Y387746D01*
X575902Y387916D01*
X575816Y388080D01*
X575717Y388236D01*
X575605Y388382D01*
X575480Y388519D01*
X575344Y388643D01*
X575197Y388756D01*
X575042Y388855D01*
X574878Y388940D01*
X574707Y389011D01*
X574531Y389066D01*
X574351Y389106D01*
X574168Y389131D01*
X573983Y389139D01*
X573799Y389131D01*
X573616Y389106D01*
X573436Y389066D01*
X573259Y389011D01*
X573089Y388940D01*
X572925Y388855D01*
X572769Y388756D01*
X572623Y388643D01*
X572487Y388519D01*
X572362Y388382D01*
X572250Y388236D01*
X572150Y388080D01*
X572065Y387916D01*
X571994Y387746D01*
X571939Y387570D01*
X571899Y387389D01*
X571875Y387206D01*
X571867Y387022D01*
X571867Y387022D01*
X540035Y368139D02*
X540807Y367056D01*
X541671Y366045D01*
X542619Y365113D01*
X543645Y364268D01*
X544740Y363515D01*
X545898Y362860D01*
X547107Y362309D01*
X548361Y361865D01*
X549648Y361532D01*
X550959Y361313D01*
X552285Y361208D01*
X553614Y361220D01*
X554937Y361347D01*
X556245Y361590D01*
X557526Y361945D01*
X558771Y362410D01*
X559971Y362983D01*
X561117Y363658D01*
X562199Y364430D01*
X563210Y365293D01*
X564142Y366241D01*
X564988Y367267D01*
X565451Y367917D01*
X565598Y384739D02*
X564826Y385822D01*
X563962Y386833D01*
X563014Y387764D01*
X561988Y388610D01*
X560892Y389363D01*
X559735Y390018D01*
X558525Y390569D01*
X557272Y391013D01*
X555985Y391346D01*
X554674Y391565D01*
X553348Y391670D01*
X552019Y391658D01*
X550695Y391531D01*
X549388Y391288D01*
X548107Y390933D01*
X546862Y390467D01*
X545662Y389895D01*
X544516Y389220D01*
X543434Y388448D01*
X542423Y387585D01*
X541491Y386636D01*
X540645Y385611D01*
X540182Y384961D01*
X571867Y382789D02*
X571875Y382604D01*
X571899Y382421D01*
X571939Y382241D01*
X571994Y382065D01*
X572065Y381894D01*
X572150Y381731D01*
X572250Y381575D01*
X572362Y381428D01*
X572487Y381292D01*
X572623Y381167D01*
X572769Y381055D01*
X572925Y380956D01*
X573089Y380871D01*
X573259Y380800D01*
X573436Y380744D01*
X573616Y380704D01*
X573799Y380680D01*
X573983Y380672D01*
X574168Y380680D01*
X574351Y380704D01*
X574531Y380744D01*
X574707Y380800D01*
X574878Y380871D01*
X575042Y380956D01*
X575197Y381055D01*
X575344Y381167D01*
X575480Y381292D01*
X575605Y381428D01*
X575717Y381575D01*
X575816Y381731D01*
X575902Y381894D01*
X575972Y382065D01*
X576028Y382241D01*
X576068Y382421D01*
X576092Y382604D01*
X576100Y382789D01*
X569750Y384906D02*
X569750Y389139D01*
X576100Y387022D02*
X576100Y382789D01*
X569750Y367972D02*
X569750Y363739D01*
G54D12*
X194107Y572414D02*
X198373Y572414D01*
X200507Y574557D01*
X200507Y580986D01*
X198373Y583129D01*
X194107Y583129D01*
X195173Y583129D02*
X195173Y572414D01*
X209040Y583129D02*
X205840Y583129D01*
X203707Y580986D01*
X203707Y576700D01*
X203707Y574557D01*
X205840Y572414D01*
X207973Y572414D01*
X210107Y574557D01*
X210107Y576700D01*
X207973Y578843D01*
X205840Y578843D01*
X203707Y576700D01*
X194107Y549554D02*
X198373Y549554D01*
X200507Y551697D01*
X200507Y558126D01*
X198373Y560269D01*
X194107Y560269D01*
X195173Y560269D02*
X195173Y549554D01*
X210107Y560269D02*
X203707Y560269D01*
X203707Y555983D01*
X207973Y555983D01*
X210107Y553840D01*
X210107Y551697D01*
X207973Y549554D01*
X203707Y549554D01*
X194107Y524154D02*
X198373Y524154D01*
X200507Y526297D01*
X200507Y532726D01*
X198373Y534869D01*
X194107Y534869D01*
X195173Y534869D02*
X195173Y524154D01*
X210107Y528440D02*
X203707Y528440D01*
X209040Y534869D01*
X209040Y524154D01*
X207973Y524154D02*
X210107Y524154D01*
X194107Y498754D02*
X198373Y498754D01*
X200507Y500897D01*
X200507Y507326D01*
X198373Y509469D01*
X194107Y509469D01*
X195173Y509469D02*
X195173Y498754D01*
X204773Y508397D02*
X205840Y509469D01*
X207973Y509469D01*
X210107Y507326D01*
X210107Y505183D01*
X209040Y504111D01*
X210107Y503040D01*
X210107Y500897D01*
X207973Y498754D01*
X205840Y498754D01*
X204773Y499826D01*
X205840Y504111D02*
X209040Y504111D01*
X194107Y473354D02*
X198373Y473354D01*
X200507Y475497D01*
X200507Y481926D01*
X198373Y484069D01*
X194107Y484069D01*
X195173Y484069D02*
X195173Y473354D01*
X203707Y481926D02*
X205840Y484069D01*
X207973Y484069D01*
X210107Y481926D01*
X210107Y480854D01*
X203707Y473354D01*
X210107Y473354D01*
X210107Y474426D01*
X194107Y447954D02*
X198373Y447954D01*
X200507Y450097D01*
X200507Y456526D01*
X198373Y458669D01*
X194107Y458669D01*
X195173Y458669D02*
X195173Y447954D01*
X204773Y456526D02*
X206907Y458669D01*
X206907Y447954D01*
X203707Y447954D02*
X210107Y447954D01*
G54D13*
G36*
X175431Y567560D02*
X175431Y589972D01*
X183431Y589972D01*
X183431Y567560D01*
X175431Y567560D01*
G37*
G36*
X175431Y542160D02*
X175431Y564572D01*
X183431Y564572D01*
X183431Y542160D01*
X175431Y542160D01*
G37*
G36*
X175431Y516760D02*
X175431Y539172D01*
X183431Y539172D01*
X183431Y516760D01*
X175431Y516760D01*
G37*
G36*
X175431Y491360D02*
X175431Y513772D01*
X183431Y513772D01*
X183431Y491360D01*
X175431Y491360D01*
G37*
G36*
X175431Y465960D02*
X175431Y488372D01*
X183431Y488372D01*
X183431Y465960D01*
X175431Y465960D01*
G37*
G36*
X175431Y440560D02*
X175431Y462972D01*
X183431Y462972D01*
X183431Y440560D01*
X175431Y440560D01*
G37*
G54D14*
X173440Y579120D02*
X167440Y579120D01*
X231440Y579120D02*
X224940Y579120D01*
X173440Y553720D02*
X167440Y553720D01*
X231440Y553720D02*
X224940Y553720D01*
X173440Y528320D02*
X167440Y528320D01*
X231440Y528320D02*
X224940Y528320D01*
X173440Y502920D02*
X167440Y502920D01*
X231440Y502920D02*
X224940Y502920D01*
X173440Y477520D02*
X167440Y477520D01*
X231440Y477520D02*
X224940Y477520D01*
X173440Y452120D02*
X167440Y452120D01*
X231440Y452120D02*
X224940Y452120D01*
G54D15*
X231096Y581206D02*
X231096Y583349D01*
X231807Y584778D01*
X232519Y584778D01*
X233230Y583349D01*
X233230Y581206D01*
X231096Y582278D02*
X233230Y582278D01*
X163446Y581875D02*
X162731Y582586D01*
X162731Y583297D01*
X163446Y584008D01*
X165589Y584008D01*
X166303Y583297D01*
X166303Y582586D01*
X165589Y581875D01*
X231096Y555806D02*
X231096Y557949D01*
X231807Y559378D01*
X232519Y559378D01*
X233230Y557949D01*
X233230Y555806D01*
X231096Y556878D02*
X233230Y556878D01*
X163446Y556475D02*
X162731Y557186D01*
X162731Y557897D01*
X163446Y558608D01*
X165589Y558608D01*
X166303Y557897D01*
X166303Y557186D01*
X165589Y556475D01*
X231096Y530406D02*
X231096Y532549D01*
X231807Y533978D01*
X232519Y533978D01*
X233230Y532549D01*
X233230Y530406D01*
X231096Y531478D02*
X233230Y531478D01*
X163446Y531075D02*
X162731Y531786D01*
X162731Y532497D01*
X163446Y533208D01*
X165589Y533208D01*
X166303Y532497D01*
X166303Y531786D01*
X165589Y531075D01*
X231096Y505006D02*
X231096Y507149D01*
X231807Y508578D01*
X232519Y508578D01*
X233230Y507149D01*
X233230Y505006D01*
X231096Y506078D02*
X233230Y506078D01*
X163446Y505675D02*
X162731Y506386D01*
X162731Y507097D01*
X163446Y507808D01*
X165589Y507808D01*
X166303Y507097D01*
X166303Y506386D01*
X165589Y505675D01*
X231096Y479606D02*
X231096Y481749D01*
X231807Y483178D01*
X232519Y483178D01*
X233230Y481749D01*
X233230Y479606D01*
X231096Y480678D02*
X233230Y480678D01*
X163446Y480275D02*
X162731Y480986D01*
X162731Y481697D01*
X163446Y482408D01*
X165589Y482408D01*
X166303Y481697D01*
X166303Y480986D01*
X165589Y480275D01*
X231096Y454206D02*
X231096Y456349D01*
X231807Y457778D01*
X232519Y457778D01*
X233230Y456349D01*
X233230Y454206D01*
X231096Y455278D02*
X233230Y455278D01*
X163446Y454875D02*
X162731Y455586D01*
X162731Y456297D01*
X163446Y457008D01*
X165589Y457008D01*
X166303Y456297D01*
X166303Y455586D01*
X165589Y454875D01*
G54D16*
X-63500Y175260D02*
X-63500Y220980D01*
X-63500Y175260D02*
X16764Y175260D01*
X739144Y175260D02*
X658880Y175260D01*
X739144Y175260D02*
X739144Y220980D01*
X739144Y632460D02*
X739144Y586740D01*
X739144Y632460D02*
X658880Y632460D01*
X-63500Y632460D02*
X16764Y632460D01*
X-63500Y632460D02*
X-63500Y586740D01*
X-113500Y175260D02*
X-213500Y175260D01*
X-163500Y125260D02*
X-163500Y225260D01*
X-201000Y175260D02*
G75*
D01*
G02X-201000Y175260I37500J0*
G01*
X789144Y175260D02*
X889144Y175260D01*
X839144Y125260D02*
X839144Y225260D01*
X801644Y175260D02*
G75*
D01*
G02X801644Y175260I37500J0*
G01*
X826644Y175260D02*
G75*
D01*
G02X826644Y175260I12500J0*
G01*
X-113500Y632460D02*
X-213500Y632460D01*
X-163500Y582460D02*
X-163500Y682460D01*
X-201000Y632460D02*
G75*
D01*
G02X-201000Y632460I37500J0*
G01*
X-188500Y632460D02*
G75*
D01*
G02X-188500Y632460I25000J0*
G01*
X-176000Y632460D02*
G75*
D01*
G02X-176000Y632460I12500J0*
G01*
G54D17*
X320040Y358100D03*
X292998Y592477D03*
X277517Y331842D03*
X687442Y362563D03*
G54D18*
X345440Y352980D03*
X320938Y589897D03*
X274937Y303902D03*
X659502Y365143D03*

M02*
