G04 Generated by Ultiboard 14.1 *
%FSLAX34Y34*%
%MOMM*%

%ADD10C,0.0001*%
%ADD11C,0.1270*%


G04 ColorRGB FF14FF for the following layer *
%LNSilkscreen Bottom*%
%LPD*%
G54D10*
G54D11*
X-63500Y175260D02*
X-63500Y220980D01*
X-63500Y175260D02*
X16764Y175260D01*
X739144Y175260D02*
X658880Y175260D01*
X739144Y175260D02*
X739144Y220980D01*
X739144Y632460D02*
X739144Y586740D01*
X739144Y632460D02*
X658880Y632460D01*
X-63500Y632460D02*
X16764Y632460D01*
X-63500Y632460D02*
X-63500Y586740D01*
X-113500Y175260D02*
X-213500Y175260D01*
X-163500Y125260D02*
X-163500Y225260D01*
X-201000Y175260D02*
G75*
D01*
G02X-201000Y175260I37500J0*
G01*
X789144Y175260D02*
X889144Y175260D01*
X839144Y125260D02*
X839144Y225260D01*
X801644Y175260D02*
G75*
D01*
G02X801644Y175260I37500J0*
G01*
X826644Y175260D02*
G75*
D01*
G02X826644Y175260I12500J0*
G01*
X-113500Y632460D02*
X-213500Y632460D01*
X-163500Y582460D02*
X-163500Y682460D01*
X-201000Y632460D02*
G75*
D01*
G02X-201000Y632460I37500J0*
G01*
X-188500Y632460D02*
G75*
D01*
G02X-188500Y632460I25000J0*
G01*
X-176000Y632460D02*
G75*
D01*
G02X-176000Y632460I12500J0*
G01*

M02*
